<svg width="32" height="32" viewBox="0 0 32 32" fill="none" xmlns="http://www.w3.org/2000/svg">
<circle cx="16" cy="16" r="16" fill="#678CCA"/>
<path d="M12.5355 11.7951C12.6299 11.5412 12.803 11.3856 13.0233 11.2709C13.4404 11.058 13.889 10.9925 14.3375 11.0007C14.9828 11.017 15.6281 11.058 16.2655 11.0826C16.5566 11.0989 16.8399 11.1071 17.1154 11.2218C17.5246 11.3938 17.737 11.7132 17.7528 12.1636C17.7606 12.5239 17.7134 12.8925 17.6977 13.261C17.6741 14.039 17.6426 14.8171 17.6426 15.5951C17.6426 15.8408 17.7449 16.0865 17.8079 16.3321C17.8236 16.3977 17.8708 16.4632 17.9102 16.5205C18.0675 16.7498 18.1148 16.7498 18.3351 16.6024C18.7443 16.3321 19.0512 15.9636 19.3266 15.5541C19.7043 14.9972 20.0349 14.424 20.3182 13.8179C20.5936 13.2119 20.8769 12.5977 21.1366 11.9834C21.2625 11.6722 21.4671 11.5412 21.7897 11.5494C22.9937 11.5576 24.2056 11.5576 25.4096 11.5494C25.7952 11.5494 26.0706 11.8933 25.984 12.2864C25.8896 12.7041 25.7086 13.0808 25.4961 13.433C24.8981 14.4485 24.2292 15.4067 23.4737 16.2994C23.2062 16.6106 22.9701 16.9464 22.8442 17.3559C22.7104 17.7981 22.797 18.1912 23.1117 18.5188C23.6705 19.1003 24.2528 19.6653 24.7958 20.2632C25.1184 20.6153 25.4017 21.0084 25.685 21.4016C25.866 21.6472 25.984 21.9421 25.9525 22.2697C25.9132 22.6382 25.7401 22.8265 25.386 22.8429C24.7092 22.8839 24.0246 22.9084 23.3399 22.9412C22.9465 22.9576 22.5451 22.9822 22.1517 22.9985C21.8369 23.0149 21.5536 22.8921 21.2861 22.7283C20.8611 22.4744 20.4991 22.1304 20.1529 21.7701C19.7909 21.4015 19.4525 21.0166 19.1771 20.5662C19.004 20.2796 18.524 20.124 18.2249 20.2468C17.9888 20.3369 17.8787 20.5334 17.8551 20.7791C17.8157 21.1886 17.7921 21.5899 17.7606 21.9994C17.7134 22.499 17.4144 22.8102 16.9344 22.8757C15.9901 23.0067 15.0536 22.9576 14.125 22.7692C13.4404 22.63 12.8502 22.286 12.2915 21.8684C11.5203 21.3033 10.8672 20.6072 10.2534 19.8783C9.9386 19.4934 9.65531 19.0757 9.38775 18.658C8.51426 17.3231 7.68799 15.9636 6.97189 14.5304C6.62564 13.8425 6.2794 13.1627 6.0984 12.4011C6.05906 12.2291 6.03545 12.0571 6.00397 11.8852C5.98823 11.8033 6.01971 11.7377 6.09053 11.7132C6.28726 11.6477 6.484 11.5576 6.68073 11.5494C7.31814 11.5248 7.96342 11.5248 8.60083 11.5166C8.87625 11.5166 9.15167 11.5412 9.4271 11.533C9.79695 11.5166 10.0488 11.6886 10.2062 12.0162C10.3635 12.3438 10.5052 12.6796 10.6547 13.0071C11.1977 14.1865 11.7879 15.3412 12.5591 16.3813C12.6692 16.5369 12.8424 16.6597 13.0076 16.758C13.2043 16.8727 13.3775 16.8153 13.4955 16.6106C13.6372 16.3731 13.7001 16.1028 13.708 15.8244C13.7158 15.0382 13.7395 14.252 13.7316 13.4658C13.7237 12.655 13.3381 12.1145 12.5984 11.8196C12.5827 11.8196 12.5591 11.8114 12.5355 11.7951Z" fill="white"/>
</svg>
