<svg width="25" height="25" viewBox="0 0 25 25" fill="none" xmlns="http://www.w3.org/2000/svg">
<path fill-rule="evenodd" clip-rule="evenodd" d="M0.293357 0.292893C0.683881 -0.0976311 1.31705 -0.0976311 1.70757 0.292893L12.3139 10.8993L22.9203 0.292893C23.3108 -0.0976311 23.944 -0.0976311 24.3345 0.292893C24.725 0.683417 24.725 1.31658 24.3345 1.70711L13.7282 12.3135L24.335 22.9203C24.7255 23.3108 24.7255 23.944 24.335 24.3345C23.9445 24.725 23.3113 24.725 22.9208 24.3345L12.3139 13.7277L1.70711 24.3345C1.31658 24.725 0.683417 24.725 0.292893 24.3345C-0.0976311 23.944 -0.0976311 23.3108 0.292893 22.9203L10.8997 12.3135L0.293357 1.70711C-0.0971676 1.31658 -0.0971676 0.683417 0.293357 0.292893Z" fill="white"/>
</svg>
