<svg width="16" height="14" viewBox="0 0 16 14" fill="none" xmlns="http://www.w3.org/2000/svg">
<path fill-rule="evenodd" clip-rule="evenodd" d="M2.66732 2.66675C2.48627 2.66675 2.33398 2.81903 2.33398 3.00008V11.0001C2.33398 11.1811 2.48627 11.3334 2.66732 11.3334H13.334C13.515 11.3334 13.6673 11.1811 13.6673 11.0001V3.00008C13.6673 2.81903 13.515 2.66675 13.334 2.66675H2.66732ZM0.333984 3.00008C0.333984 1.71446 1.3817 0.666748 2.66732 0.666748H13.334C14.6196 0.666748 15.6673 1.71446 15.6673 3.00008V11.0001C15.6673 12.2857 14.6196 13.3334 13.334 13.3334H2.66732C1.3817 13.3334 0.333984 12.2857 0.333984 11.0001V3.00008Z" fill="#E54323"/>
<path fill-rule="evenodd" clip-rule="evenodd" d="M0.514838 2.42662C0.831553 1.97417 1.45508 1.86414 1.90753 2.18085L8.00074 6.4461L14.0939 2.18085C14.5464 1.86414 15.1699 1.97417 15.4866 2.42662C15.8034 2.87907 15.6933 3.5026 15.2409 3.81932L8.5742 8.48598C8.22988 8.72701 7.7716 8.72701 7.42727 8.48598L0.760608 3.81932C0.308159 3.5026 0.198124 2.87907 0.514838 2.42662Z" fill="#E54323"/>
</svg>
