<svg width="17" height="15" viewBox="0 0 17 15" fill="none" xmlns="http://www.w3.org/2000/svg">
<path fill-rule="evenodd" clip-rule="evenodd" d="M10.1604 0.374006C10.7603 0.127036 11.403 0 12.0519 0C12.7008 0 13.3436 0.127036 13.9434 0.374006C14.5433 0.620981 15.0887 0.983141 15.5484 1.4401C16.0081 1.8968 16.3732 2.43935 16.6224 3.03694C16.8716 3.63469 17 4.2756 17 4.92302C17 5.57043 16.8716 6.21134 16.6224 6.80909C16.3731 7.40676 16.008 7.94937 15.5482 8.40609C15.5482 8.40615 15.5483 8.40604 15.5482 8.40609L9.20466 14.7094C8.81466 15.0969 8.18496 15.0969 7.79496 14.7094L1.45141 8.40609C0.522833 7.48342 0 6.23064 0 4.92302C0 3.61539 0.522833 2.36261 1.45141 1.43994C2.37976 0.517477 3.63754 0.000381351 4.94771 0.000381291C6.25787 0.000381291 7.51565 0.517477 8.44401 1.43994L8.49981 1.49539L8.55544 1.4401C8.5555 1.44005 8.55539 1.44016 8.55544 1.4401C9.01508 0.983219 9.56061 0.620951 10.1604 0.374006ZM14.1383 2.85848C13.865 2.58673 13.5401 2.37082 13.182 2.22339C12.8239 2.07596 12.4399 2 12.0519 2C11.6639 2 11.2799 2.07596 10.9218 2.22339C10.5638 2.37082 10.2388 2.58673 9.96548 2.85848L9.20466 3.61447C8.81466 4.002 8.18496 4.002 7.79496 3.61447L7.03431 2.85865C6.48199 2.30984 5.73153 2.00038 4.94771 2.00038C4.16388 2.00038 3.41343 2.30984 2.86111 2.85865C2.309 3.40725 2 4.14995 2 4.92302C2 5.69608 2.309 6.43878 2.86111 6.98738L8.49981 12.5903L14.1385 6.98738C14.412 6.71576 14.6288 6.39345 14.7764 6.03934C14.9241 5.68524 15 5.30593 15 4.92302C15 4.5401 14.9241 4.16079 14.7764 3.80669C14.6288 3.45258 14.4118 3.1301 14.1383 2.85848Z" fill="#C7C7C7"/>
</svg>
