<svg width="17" height="15" viewBox="0 0 17 15" fill="none" xmlns="http://www.w3.org/2000/svg">
<path fill-rule="evenodd" clip-rule="evenodd" d="M12.0519 0C11.403 0 10.7603 0.127036 10.1604 0.374006C9.56061 0.620951 9.01508 0.983219 8.55544 1.4401L8.49981 1.49539L8.44401 1.43994C7.51565 0.517477 6.25787 0.000381291 4.94771 0.000381291C3.63754 0.000381351 2.37976 0.517477 1.45141 1.43994C0.522833 2.36261 0 3.61539 0 4.92302C0 6.23064 0.522833 7.48342 1.45141 8.40609L7.79496 14.7094C8.18496 15.0969 8.81466 15.0969 9.20466 14.7094L15.5482 8.40609C16.008 7.94937 16.3731 7.40676 16.6224 6.80909C16.8716 6.21134 17 5.57043 17 4.92302C17 4.2756 16.8716 3.63469 16.6224 3.03694C16.3732 2.43935 16.0081 1.8968 15.5484 1.4401C15.0887 0.983141 14.5433 0.620981 13.9434 0.374006C13.3436 0.127036 12.7008 0 12.0519 0Z" fill="white"/>
</svg>
