<svg width="150" height="73" viewBox="0 0 150 73" fill="none" xmlns="http://www.w3.org/2000/svg">
<path d="M149.143 30.8585H122.789V3.78662H108.882V30.8585H82.5029V43.751H108.882V70.8229H122.789V43.751H149.143V30.8585Z" fill="white"/>
<path d="M63.1512 47.0176C62.9051 47.0549 62.6548 47.0549 62.4088 47.0176L53.2776 44.2708C52.2238 46.5814 50.6883 48.6401 48.7739 50.3088L53.0302 56.8911C53.2302 57.1678 53.3709 57.4828 53.4433 57.8165C53.5157 58.1501 53.5183 58.4952 53.4509 58.8298C53.3835 59.1645 53.2476 59.4817 53.0517 59.7613C52.8558 60.0409 52.6041 60.2769 52.3125 60.4545C51.8894 60.7205 51.4017 60.866 50.902 60.8753C50.4732 60.8846 50.0492 60.7823 49.6718 60.5784C49.2943 60.3745 48.9764 60.076 48.7491 59.7122L44.3939 53.0308C42.7684 53.8067 41.0318 54.3243 39.2468 54.565V63.2013C39.2468 63.8576 38.9861 64.487 38.522 64.9511C38.0579 65.4152 37.4285 65.6759 36.7722 65.6759C36.4366 65.6763 36.1043 65.6084 35.7957 65.4764C35.4872 65.3444 35.2086 65.151 34.9772 64.9079C34.7457 64.6649 34.5661 64.3773 34.4493 64.0626C34.3324 63.748 34.2808 63.4128 34.2976 63.0776V54.4413C32.4439 54.1688 30.642 53.6181 28.9525 52.8081L26.082 57.0891C25.8511 57.4401 25.5345 57.7266 25.1621 57.9214C24.7898 58.1163 24.374 58.213 23.9539 58.2027C23.4409 58.2066 22.9393 58.0509 22.5187 57.7573C22.231 57.5756 21.9839 57.3364 21.7928 57.0549C21.6017 56.7734 21.4707 56.4556 21.408 56.1212C21.3453 55.7868 21.3523 55.443 21.4284 55.1114C21.5045 54.7798 21.6482 54.4674 21.8505 54.1939L24.5973 50.0118C23.5024 49.0086 22.5305 47.8789 21.702 46.6464L12.942 50.8532C12.5952 51.0213 12.2139 51.106 11.8285 51.1007C11.3441 51.1093 10.8678 50.9756 10.4587 50.716C10.0496 50.4565 9.72569 50.0826 9.52713 49.6407C9.36587 49.338 9.26926 49.0052 9.24345 48.6632C9.21764 48.3213 9.26318 47.9776 9.37719 47.6542C9.4912 47.3308 9.6712 47.0347 9.90574 46.7845C10.1403 46.5343 10.4243 46.3356 10.7397 46.201L19.4749 41.9942C18.9372 40.2209 18.6621 38.3784 18.6583 36.5254C18.6567 35.6134 18.7312 34.703 18.881 33.8034L9.7251 31.0566C9.07934 30.8458 8.54053 30.3928 8.22207 29.7928C7.9036 29.1928 7.83032 28.4926 8.01764 27.8397C8.10466 27.5114 8.2583 27.2046 8.46901 26.9383C8.67973 26.672 8.94299 26.4519 9.24243 26.2918C9.54187 26.1316 9.87108 26.0347 10.2096 26.0073C10.548 25.9798 10.8885 26.0224 11.2098 26.1322L20.3905 28.9779C21.4439 26.66 22.9792 24.5931 24.8942 22.9152L20.6132 16.3329C20.4142 16.0547 20.2751 15.7382 20.2045 15.4036C20.134 15.0689 20.1336 14.7233 20.2033 14.3885C20.2731 14.0536 20.4115 13.7369 20.6098 13.4582C20.8081 13.1796 21.0621 12.9451 21.3556 12.7695C21.633 12.5746 21.9475 12.4388 22.2796 12.3705C22.6117 12.3023 22.9543 12.303 23.2861 12.3726C23.6179 12.4422 23.9318 12.5792 24.2084 12.7752C24.4851 12.9711 24.7185 13.2219 24.8942 13.5118L29.1753 20.0942C30.7988 19.3133 32.5362 18.7954 34.3224 18.56V9.92368C34.3224 9.26738 34.5831 8.638 35.0472 8.17392C35.5112 7.70985 36.1406 7.4491 36.7969 7.4491C37.4532 7.4491 38.0826 7.70985 38.5467 8.17392C39.0108 8.638 39.2715 9.26738 39.2715 9.92368V18.56C41.1173 18.8324 42.9111 19.3831 44.5919 20.1932L47.4871 15.9122C47.6689 15.6281 47.9068 15.3843 48.1863 15.1955C48.4658 15.0068 48.7809 14.8771 49.1123 14.8145C49.4436 14.752 49.7843 14.7577 50.1134 14.8316C50.4424 14.9055 50.7529 15.0459 51.0257 15.2441C51.3153 15.4238 51.5647 15.6613 51.7582 15.9419C51.9517 16.2224 52.0851 16.5399 52.1502 16.8744C52.2152 17.209 52.2105 17.5534 52.1362 17.886C52.062 18.2186 51.9198 18.5324 51.7187 18.8075L48.8234 23.0884C49.967 24.0904 50.9737 25.2386 51.8176 26.5034L60.5776 22.2719C61.1945 21.9798 61.9022 21.9448 62.545 22.1745C63.1877 22.4042 63.7129 22.8798 64.0049 23.4968C64.297 24.1137 64.332 24.8213 64.1022 25.4641C63.8725 26.1068 63.3969 26.632 62.78 26.9241L54.0447 31.1308C54.5841 32.9122 54.8593 34.7631 54.8613 36.6244C54.862 37.5281 54.7875 38.4303 54.6386 39.3216L63.7698 42.0685C64.4261 42.1636 65.0177 42.5156 65.4145 43.047C65.8113 43.5783 65.9807 44.2455 65.8856 44.9018C65.7904 45.5581 65.4384 46.1497 64.9071 46.5465C64.3757 46.9433 63.7085 47.1128 63.0522 47.0176H63.1512ZM36.7227 0.000679762C29.4944 -0.0434262 22.4157 2.05972 16.3841 6.04348C10.3525 10.0272 5.63951 15.7122 2.84273 22.3777C0.0459507 29.0432 -0.70869 36.3891 0.674418 43.484C2.05753 50.5789 5.51613 57.1034 10.6118 62.2303C15.7074 67.3572 22.2106 70.8557 29.2969 72.2822C36.3832 73.7087 43.7335 72.999 50.416 70.243C57.0985 67.4871 62.8122 62.809 66.8328 56.8019C70.8534 50.7948 72.9998 43.7291 73 36.5007C73.0163 31.7216 72.0906 26.9861 70.276 22.5649C68.4614 18.1437 65.7934 14.1233 62.4244 10.7337C59.0554 7.34402 55.0515 4.6515 50.6415 2.80988C46.2315 0.968247 41.5018 0.0136564 36.7227 0.000679762Z" fill="white"/>
</svg>
