<svg width="25" height="15" viewBox="0 0 25 15" fill="none" xmlns="http://www.w3.org/2000/svg">
<path d="M8.16932 0.993835C8.28736 0.676485 8.50376 0.481981 8.77919 0.338662C9.30052 0.0724978 9.86121 -0.00939917 10.4219 0.000837914C11.2285 0.0213121 12.0351 0.0724975 12.8319 0.103209C13.1958 0.123683 13.5499 0.13392 13.8942 0.277239C14.4057 0.492218 14.6713 0.891464 14.691 1.4545C14.7008 1.90494 14.6418 2.36561 14.6221 2.82627C14.5926 3.7988 14.5533 4.77132 14.5533 5.74384C14.5533 6.05096 14.6811 6.35807 14.7598 6.66518C14.7795 6.74708 14.8385 6.82897 14.8877 6.90063C15.0844 7.18727 15.1434 7.18727 15.4189 7.00301C15.9304 6.66518 16.314 6.20451 16.6583 5.69266C17.1304 4.99654 17.5436 4.27994 17.8977 3.5224C18.242 2.76485 18.5961 1.99707 18.9207 1.22929C19.0781 0.840279 19.3338 0.676485 19.7371 0.686722C21.2421 0.696959 22.757 0.696959 24.262 0.686722C24.7439 0.686722 25.0882 1.11668 24.98 1.60806C24.862 2.13015 24.6357 2.60106 24.3702 3.04125C23.6226 4.31065 22.7865 5.50839 21.8422 6.62423C21.5077 7.01324 21.2126 7.43296 21.0552 7.94481C20.888 8.49762 20.9962 8.989 21.3897 9.39848C22.0881 10.1253 22.816 10.8317 23.4947 11.579C23.898 12.0192 24.2521 12.5106 24.6062 13.0019C24.8325 13.309 24.98 13.6776 24.9407 14.0871C24.8915 14.5477 24.6751 14.7832 24.2324 14.8037C23.3865 14.8548 22.5307 14.8856 21.6749 14.9265C21.1831 14.947 20.6814 14.9777 20.1896 14.9982C19.7961 15.0186 19.442 14.8651 19.1076 14.6603C18.5764 14.343 18.1239 13.913 17.6911 13.4626C17.2386 13.0019 16.8157 12.5208 16.4714 11.9578C16.255 11.5995 15.6549 11.405 15.2812 11.5585C14.9861 11.6711 14.8484 11.9168 14.8188 12.2239C14.7697 12.7358 14.7401 13.2374 14.7008 13.7492C14.6418 14.3737 14.268 14.7627 13.668 14.8446C12.4876 15.0084 11.317 14.947 10.1563 14.7115C9.30052 14.5375 8.56278 14.1075 7.86439 13.5854C6.9004 12.8791 6.08397 12.0089 5.31671 11.0978C4.92325 10.6167 4.56913 10.0946 4.23469 9.57251C3.14283 7.90387 2.10999 6.20451 1.21486 4.41302C0.782053 3.55311 0.349245 2.70343 0.123003 1.75138C0.0738206 1.5364 0.0443112 1.32142 0.00496487 1.10644C-0.0147083 1.00407 0.0246371 0.922175 0.113166 0.891464C0.359081 0.809567 0.604995 0.696959 0.850909 0.686722C1.64767 0.656011 2.45427 0.656012 3.25103 0.645775C3.59531 0.645775 3.93959 0.676485 4.28387 0.666248C4.74619 0.645774 5.06096 0.860754 5.25769 1.27024C5.45442 1.67972 5.63148 2.09944 5.81838 2.50892C6.4971 3.98306 7.23484 5.42649 8.19883 6.7266C8.33654 6.92111 8.55295 7.07466 8.75951 7.19751C9.00543 7.34083 9.22183 7.26917 9.36938 7.01324C9.54644 6.71637 9.62513 6.37854 9.63497 6.03048C9.6448 5.04772 9.67431 4.06496 9.66448 3.0822C9.65464 2.06873 9.17265 1.39308 8.24801 1.02455C8.22834 1.02455 8.19883 1.01431 8.16932 0.993835Z" fill="#1BA4DF"/>
</svg>
