<svg width="24" height="24" viewBox="0 0 24 24" fill="none" xmlns="http://www.w3.org/2000/svg">
<path fill-rule="evenodd" clip-rule="evenodd" d="M12 0C18.6277 0 24 5.37234 24 12C24 18.6277 18.6277 24 12 24C5.37234 24 0 18.6277 0 12C0 5.37234 5.37234 0 12 0ZM14.6953 4.96922C14.6958 5.18391 14.7591 8.28938 18.0173 8.48297C18.0173 9.37828 18.0183 10.0275 18.0183 10.882C17.7717 10.8961 15.8733 10.7583 14.6916 9.70453L14.6878 14.3752C14.7328 17.617 12.3473 19.5895 9.22875 18.908C3.85172 17.2997 5.63859 9.32484 11.0377 10.178C11.0377 12.7528 11.0391 10.1775 11.0391 12.7528C8.80875 12.4247 8.0625 14.28 8.65547 15.6089C9.19453 16.8183 11.4155 17.0803 12.1903 15.3741C12.278 15.0403 12.3216 14.6592 12.3216 14.2317V4.9575L14.6953 4.96922Z" fill="#1BA4DF"/>
</svg>
