<svg width="14" height="16" viewBox="0 0 14 16" fill="none" xmlns="http://www.w3.org/2000/svg">
<path fill-rule="evenodd" clip-rule="evenodd" d="M1.17157 10.4216C1.92172 9.67143 2.93913 9.25 4 9.25H10C11.0609 9.25 12.0783 9.67143 12.8284 10.4216C13.5786 11.1717 14 12.1891 14 13.25V14.75C14 15.3023 13.5523 15.75 13 15.75C12.4477 15.75 12 15.3023 12 14.75V13.25C12 12.7196 11.7893 12.2109 11.4142 11.8358C11.0391 11.4607 10.5304 11.25 10 11.25H4C3.46957 11.25 2.96086 11.4607 2.58579 11.8358C2.21071 12.2109 2 12.7196 2 13.25V14.75C2 15.3023 1.55228 15.75 1 15.75C0.447715 15.75 0 15.3023 0 14.75V13.25C0 12.1891 0.421427 11.1717 1.17157 10.4216Z" fill="white"/>
<path fill-rule="evenodd" clip-rule="evenodd" d="M7 2.25C5.89543 2.25 5 3.14543 5 4.25C5 5.35457 5.89543 6.25 7 6.25C8.10457 6.25 9 5.35457 9 4.25C9 3.14543 8.10457 2.25 7 2.25ZM3 4.25C3 2.04086 4.79086 0.25 7 0.25C9.20914 0.25 11 2.04086 11 4.25C11 6.45914 9.20914 8.25 7 8.25C4.79086 8.25 3 6.45914 3 4.25Z" fill="white"/>
</svg>
