<svg width="113" height="113" viewBox="0 0 113 113" fill="none" xmlns="http://www.w3.org/2000/svg">
<path d="M0 0H113V113H0V0Z" fill="#2B268E"/>
<path fill-rule="evenodd" clip-rule="evenodd" d="M85.1873 33.7385C86.4198 33.7492 87.6215 34.1245 88.6411 34.817C89.6606 35.5095 90.4524 36.4883 90.9167 37.63C91.3809 38.7718 91.4968 40.0254 91.2498 41.2329C91.0028 42.4404 90.404 43.5478 89.5287 44.4155C88.6534 45.2833 87.5409 45.8725 86.3313 46.1091C85.1217 46.3456 83.8691 46.2188 82.7314 45.7447C81.5938 45.2706 80.6219 44.4704 79.9382 43.4449C79.2545 42.4193 78.8897 41.2144 78.8896 39.9819C78.892 39.1581 79.0569 38.3429 79.3749 37.5829C79.6929 36.823 80.1577 36.1332 80.7428 35.5532C81.3278 34.9732 82.0216 34.5144 82.7842 34.203C83.5469 33.8916 84.3636 33.7337 85.1873 33.7385Z" fill="white"/>
<path fill-rule="evenodd" clip-rule="evenodd" d="M88.7166 67.4893C90.9632 67.5143 93.1521 68.2035 95.0076 69.4702C96.8632 70.7369 98.3024 72.5243 99.144 74.6074C99.9857 76.6905 100.192 78.976 99.7371 81.1762C99.2822 83.3763 98.1865 85.3927 96.5878 86.9712C94.9891 88.5498 92.9591 89.6199 90.7534 90.0469C88.5476 90.4739 86.2649 90.2387 84.1926 89.3708C82.1204 88.5028 80.3513 87.0411 79.1082 85.1696C77.8651 83.2982 77.2036 81.1008 77.207 78.8541C77.2141 77.3514 77.5177 75.865 78.1005 74.4799C78.6832 73.0948 79.5335 71.8383 80.6028 70.7825C81.672 69.7267 82.9391 68.8924 84.3315 68.3272C85.7238 67.7621 87.214 67.4773 88.7166 67.4893Z" fill="white"/>
<path fill-rule="evenodd" clip-rule="evenodd" d="M59.4178 75.9765C60.7604 75.9908 62.0688 76.402 63.1782 77.1583C64.2877 77.9146 65.1485 78.9823 65.6524 80.2268C66.1564 81.4713 66.2808 82.8371 66.0102 84.1523C65.7395 85.4674 65.0858 86.673 64.1314 87.6174C63.1769 88.5618 61.9644 89.2027 60.6465 89.4594C59.3286 89.7162 57.9642 89.5773 56.725 89.0602C55.4859 88.5431 54.4275 87.671 53.6829 86.5537C52.9384 85.4363 52.5411 84.1237 52.541 82.781C52.5458 81.8827 52.7274 80.994 53.0755 80.1659C53.4237 79.3378 53.9316 78.5864 54.5701 77.9545C55.2087 77.3226 55.9655 76.8228 56.7973 76.4834C57.629 76.144 58.5195 75.9718 59.4178 75.9765Z" fill="white"/>
<path fill-rule="evenodd" clip-rule="evenodd" d="M21.9933 81.2791C23.8263 81.297 25.6129 81.857 27.128 82.8887C28.6432 83.9204 29.819 85.3776 30.5072 87.0765C31.1955 88.7754 31.3654 90.6401 30.9956 92.4354C30.6257 94.2307 29.7327 95.8764 28.429 97.165C27.1253 98.4536 25.4694 99.3274 23.6699 99.6763C21.8703 100.025 20.0078 99.8336 18.317 99.1255C16.6262 98.4175 15.1829 97.2248 14.1689 95.6978C13.1549 94.1707 12.6157 92.3777 12.6192 90.5447C12.6263 89.3208 12.8744 88.1102 13.3493 86.9822C13.8243 85.8542 14.5168 84.8308 15.3872 83.9704C16.2577 83.11 17.2891 82.4295 18.4226 81.9677C19.5561 81.5059 20.7694 81.2719 21.9933 81.2791Z" fill="#E54323"/>
<path fill-rule="evenodd" clip-rule="evenodd" d="M77.7679 51.5095C78.8153 51.5309 79.8331 51.861 80.6936 52.4585C81.5542 53.0559 82.2192 53.8942 82.6053 54.868C82.9914 55.8419 83.0814 56.9081 82.864 57.9329C82.6466 58.9577 82.1315 59.8956 81.3833 60.6288C80.6351 61.3621 79.687 61.8581 78.658 62.0548C77.629 62.2514 76.5649 62.1399 75.599 61.7342C74.6331 61.3285 73.8085 60.6467 73.2285 59.7743C72.6486 58.9018 72.3391 57.8776 72.3389 56.83C72.3673 55.409 72.9518 54.0559 73.9669 53.0611C74.982 52.0663 76.3467 51.5092 77.7679 51.5095Z" fill="#E54323"/>
<path fill-rule="evenodd" clip-rule="evenodd" d="M81.4052 12.1309C82.7594 12.1416 84.08 12.5529 85.2008 13.3131C86.3215 14.0732 87.1922 15.1481 87.703 16.4023C88.2138 17.6565 88.3419 19.0338 88.0711 20.3606C87.8004 21.6875 87.1429 22.9045 86.1816 23.8583C85.2202 24.8121 83.9981 25.46 82.6691 25.7202C81.3402 25.9805 79.9639 25.8415 78.7138 25.3209C77.4637 24.8002 76.3957 23.9211 75.6444 22.7944C74.8932 21.6677 74.4922 20.3438 74.4922 18.9896C74.5018 17.1641 75.2349 15.4169 76.5308 14.1312C77.8267 12.8454 79.5797 12.1261 81.4052 12.1309Z" fill="#E54323"/>
<path fill-rule="evenodd" clip-rule="evenodd" d="M15.5687 9.63346C16.5148 9.64417 17.4366 9.93452 18.2181 10.4679C18.9996 11.0014 19.6058 11.754 19.9604 12.6312C20.3151 13.5084 20.4023 14.4709 20.2112 15.3976C20.0201 16.3242 19.5591 17.1737 18.8863 17.8389C18.2135 18.5042 17.359 18.9556 16.4302 19.1362C15.5015 19.3169 14.54 19.2189 13.6669 18.8543C12.7937 18.4898 12.0479 17.8752 11.5233 17.0878C10.9987 16.3003 10.7188 15.3753 10.7188 14.4291C10.7283 13.1508 11.2441 11.9283 12.1531 11.0295C13.0621 10.1306 14.2903 9.62863 15.5687 9.63346Z" fill="white"/>
<path fill-rule="evenodd" clip-rule="evenodd" d="M45.7726 9.00012C46.8655 9.01083 47.9307 9.3447 48.8342 9.95966C49.7377 10.5746 50.439 11.4432 50.8498 12.4559C51.2606 13.4687 51.3626 14.5804 51.1428 15.651C50.9231 16.7216 50.3914 17.7032 49.6149 18.4723C48.8383 19.2413 47.8515 19.7633 46.7788 19.9726C45.7061 20.1819 44.5955 20.0691 43.5868 19.6485C42.5781 19.2278 41.7164 18.518 41.1103 17.6086C40.5042 16.6991 40.1807 15.6307 40.1807 14.5378C40.183 13.8066 40.3297 13.0832 40.6122 12.4088C40.8947 11.7345 41.3076 11.1226 41.8271 10.6081C42.3466 10.0937 42.9625 9.68681 43.6396 9.41087C44.3166 9.13494 45.0415 8.99535 45.7726 9.00012Z" fill="#E54323"/>
<path fill-rule="evenodd" clip-rule="evenodd" d="M75.6691 93.7477C76.5982 93.7548 77.5043 94.0368 78.2733 94.5582C79.0423 95.0795 79.6397 95.8168 79.9903 96.6772C80.3408 97.5376 80.4289 98.4825 80.2433 99.3928C80.0576 100.303 79.6067 101.138 78.9472 101.793C78.2878 102.447 77.4494 102.891 76.5376 103.07C75.6259 103.249 74.6817 103.153 73.8241 102.796C72.9664 102.439 72.2337 101.836 71.7183 101.063C71.2028 100.29 70.9278 99.3819 70.9277 98.4528C70.9373 97.2016 71.4411 96.005 72.3292 95.1236C73.2174 94.2422 74.4179 93.7476 75.6691 93.7477Z" fill="#E54323"/>
<path fill-rule="evenodd" clip-rule="evenodd" d="M99.3938 49.5552C100.67 49.5659 101.914 49.9543 102.97 50.6715C104.026 51.3887 104.845 52.4025 105.325 53.585C105.806 54.7674 105.925 56.0656 105.668 57.3157C105.411 58.5659 104.79 59.7119 103.882 60.6093C102.975 61.5066 101.822 62.1151 100.569 62.358C99.316 62.6009 98.0193 62.4672 96.8422 61.9739C95.6652 61.4806 94.6606 60.6497 93.9553 59.5861C93.2499 58.5225 92.8754 57.2739 92.8789 55.9976C92.8837 55.1468 93.0559 54.3053 93.3859 53.5211C93.7159 52.7369 94.1971 52.0253 94.8021 51.4271C95.407 50.8288 96.1239 50.3556 96.9118 50.0344C97.6996 49.7132 98.543 49.5504 99.3938 49.5552Z" fill="white"/>
<path fill-rule="evenodd" clip-rule="evenodd" d="M14.0128 44.1805C14.9911 44.1912 15.9444 44.4911 16.7527 45.0424C17.5609 45.5937 18.188 46.3718 18.555 47.2788C18.922 48.1857 19.0125 49.1809 18.8151 50.1392C18.6177 51.0975 18.1412 51.9759 17.4456 52.6639C16.75 53.352 15.8664 53.8189 14.9061 54.0059C13.9457 54.1928 12.9516 54.0915 12.0487 53.7147C11.1458 53.3378 10.3745 52.7023 9.83203 51.8881C9.28954 51.0739 9.00006 50.1174 9 49.139C9.00957 47.8174 9.54248 46.5535 10.4821 45.6241C11.4216 44.6948 12.6912 44.1756 14.0128 44.1805Z" fill="white"/>
<path fill-rule="evenodd" clip-rule="evenodd" d="M67.236 42.1536C67.8787 42.1607 68.5049 42.3578 69.0358 42.7201C69.5667 43.0823 69.9786 43.5935 70.2196 44.1893C70.4606 44.7851 70.5199 45.4389 70.3902 46.0684C70.2604 46.6979 69.9474 47.2749 69.4904 47.7268C69.0335 48.1788 68.453 48.4855 67.8221 48.6082C67.1913 48.731 66.5382 48.6644 65.9451 48.4169C65.3519 48.1693 64.8453 47.7518 64.489 47.2169C64.1326 46.6821 63.9424 46.0537 63.9424 45.411C63.9519 44.5438 64.3031 43.7153 64.9198 43.1054C65.5364 42.4956 66.3687 42.1535 67.236 42.1536Z" fill="white"/>
<path fill-rule="evenodd" clip-rule="evenodd" d="M99.5748 25.5769C100.719 25.5876 101.834 25.9368 102.779 26.5804C103.725 27.224 104.458 28.1332 104.888 29.1933C105.317 30.2535 105.423 31.417 105.192 32.5372C104.961 33.6574 104.404 34.6842 103.59 35.4879C102.776 36.2917 101.742 36.8364 100.619 37.0534C99.4963 37.2705 98.3342 37.15 97.2795 36.7074C96.2248 36.2648 95.3248 35.5198 94.693 34.5663C94.0613 33.6128 93.726 32.4936 93.7295 31.3498C93.7343 30.5869 93.8892 29.8324 94.1855 29.1295C94.4819 28.4265 94.9137 27.7888 95.4565 27.2527C95.9993 26.7166 96.6424 26.2927 97.349 26.0052C98.0556 25.7176 98.8119 25.5721 99.5748 25.5769Z" fill="white"/>
<path fill-rule="evenodd" clip-rule="evenodd" d="M45.519 95.0688C46.4795 95.0795 47.4153 95.3741 48.2086 95.9154C49.002 96.4568 49.6175 97.2208 49.9776 98.1112C50.3378 99.0016 50.4265 99.9787 50.2325 100.919C50.0386 101.86 49.5708 102.722 48.8878 103.398C48.2049 104.073 47.3375 104.531 46.3947 104.715C45.4519 104.898 44.4759 104.799 43.5895 104.429C42.7031 104.059 41.946 103.435 41.4135 102.636C40.8809 101.836 40.5967 100.897 40.5967 99.9368C40.6062 98.6393 41.1296 97.3984 42.0522 96.486C42.9749 95.5735 44.2215 95.0639 45.519 95.0688Z" fill="#E54323"/>
<path fill-rule="evenodd" clip-rule="evenodd" d="M101.203 93.4582C102.011 93.4653 102.798 93.7112 103.466 94.165C104.133 94.6187 104.652 95.2599 104.956 96.0078C105.26 96.7558 105.336 97.577 105.174 98.3679C105.012 99.1589 104.62 99.8842 104.046 100.453C103.473 101.021 102.744 101.407 101.952 101.562C101.159 101.717 100.339 101.634 99.5937 101.323C98.8484 101.012 98.2118 100.488 97.764 99.8165C97.3162 99.1447 97.0772 98.3554 97.0771 97.5481C97.0795 97.0086 97.1881 96.4749 97.3967 95.9774C97.6054 95.4799 97.91 95.0283 98.2931 94.6486C98.6763 94.2688 99.1305 93.9682 99.6298 93.7639C100.129 93.5597 100.664 93.4558 101.203 93.4582Z" fill="#E54323"/>
<path fill-rule="evenodd" clip-rule="evenodd" d="M97.892 9.90496C98.5597 9.9121 99.2104 10.1166 99.7621 10.4928C100.314 10.869 100.742 11.4 100.993 12.0189C101.243 12.6379 101.305 13.3171 101.17 13.9712C101.036 14.6252 100.711 15.2248 100.236 15.6945C99.7613 16.1641 99.1583 16.4829 98.5028 16.6106C97.8474 16.7382 97.1688 16.6691 96.5525 16.412C95.9363 16.1548 95.4099 15.7211 95.0396 15.1654C94.6693 14.6096 94.4717 13.9568 94.4717 13.2891C94.474 12.8423 94.5644 12.4003 94.7376 11.9885C94.9107 11.5766 95.1633 11.2029 95.4809 10.8886C95.7985 10.5744 96.1749 10.3258 96.5886 10.157C97.0023 9.98821 97.4452 9.90257 97.892 9.90496Z" fill="#E54323"/>
<path fill-rule="evenodd" clip-rule="evenodd" d="M15.6775 64.5032C16.8427 64.5139 17.9787 64.8694 18.9421 65.525C19.9055 66.1805 20.6532 67.1067 21.0908 68.1867C21.5285 69.2666 21.6366 70.452 21.4014 71.5933C21.1661 72.7346 20.5982 73.7807 19.7692 74.5996C18.9403 75.4185 17.8873 75.9736 16.7432 76.1948C15.5992 76.416 14.4152 76.2935 13.3407 75.8426C12.2661 75.3918 11.3492 74.6328 10.7055 73.6615C10.0618 72.6901 9.72013 71.5499 9.72366 70.3846C9.7284 69.6075 9.88615 68.8389 10.1879 68.1228C10.4897 67.4066 10.9296 66.7569 11.4825 66.2108C12.0353 65.6646 12.6904 65.2327 13.4102 64.9397C14.13 64.6467 14.9004 64.4984 15.6775 64.5032Z" fill="#E54323"/>
<path fill-rule="evenodd" clip-rule="evenodd" d="M39.5657 71.6152C40.3137 71.6224 41.0427 71.8512 41.6607 72.2728C42.2787 72.6943 42.7578 73.2896 43.0374 73.9835C43.317 74.6773 43.3846 75.4384 43.2316 76.1707C43.0787 76.9029 42.712 77.5733 42.178 78.0972C41.6441 78.6211 40.9667 78.9748 40.2317 79.1137C39.4967 79.2527 38.737 79.1705 38.0486 78.8776C37.3603 78.5848 36.7742 78.0944 36.3646 77.4685C35.955 76.8426 35.7401 76.1093 35.7472 75.3613C35.7496 74.8622 35.8502 74.3685 36.0434 73.9083C36.2366 73.4481 36.5185 73.0305 36.8731 72.6793C37.2277 72.3281 37.648 72.0502 38.1099 71.8614C38.5719 71.6726 39.0666 71.5766 39.5657 71.579" fill="#E54323"/>
<path fill-rule="evenodd" clip-rule="evenodd" d="M35.6388 23.7129C36.7301 24.3305 37.6878 25.1587 38.4563 26.1495C39.2247 27.1403 39.7887 28.2739 40.1153 29.4845C40.4419 30.6951 40.5248 31.9586 40.359 33.2015C40.1932 34.4443 39.7821 35.6419 39.1496 36.7245C37.8577 38.9161 35.7552 40.5111 33.2966 41.1647C30.838 41.8183 28.2209 41.4779 26.0113 40.2172C24.9203 39.5995 23.9626 38.7714 23.1937 37.7811C22.4248 36.7908 21.86 35.6578 21.5318 34.4478C21.2036 33.2377 21.1187 31.9746 21.2818 30.7315C21.445 29.4884 21.8531 28.29 22.4824 27.2056C23.7778 25.0128 25.8835 23.4174 28.3451 22.764C30.8066 22.1105 33.4264 22.4513 35.6388 23.7129Z" fill="#E54323"/>
<path fill-rule="evenodd" clip-rule="evenodd" d="M63.8339 18.7362C65.4736 18.7505 67.0724 19.2497 68.4288 20.1711C69.7853 21.0925 70.8387 22.3947 71.4563 23.9137C72.0739 25.4327 72.2281 27.1005 71.8995 28.707C71.5708 30.3135 70.774 31.7868 69.6095 32.9413C68.445 34.0957 66.9649 34.8797 65.3556 35.1944C63.7463 35.509 62.0799 35.3404 60.5663 34.7096C59.0527 34.0789 57.7597 33.0142 56.8501 31.6498C55.9405 30.2854 55.4551 28.6824 55.4551 27.0426C55.4598 25.947 55.6803 24.8631 56.1039 23.8527C56.5276 22.8424 57.1461 21.9254 57.9241 21.154C58.7022 20.3827 59.6245 19.7722 60.6385 19.3573C61.6525 18.9425 62.7383 18.7314 63.8339 18.7362Z" fill="#E54323"/>
<path fill-rule="evenodd" clip-rule="evenodd" d="M51.871 46.9854C54.0138 47.0068 56.1023 47.6618 57.8736 48.8679C59.6448 50.0739 61.0196 51.7771 61.8248 53.763C62.63 55.7488 62.8296 57.9285 62.3985 60.0276C61.9673 62.1267 60.9247 64.0512 59.402 65.5589C57.8792 67.0666 55.9444 68.09 53.8411 68.5003C51.7379 68.9105 49.5603 68.6892 47.5825 67.8643C45.6048 67.0394 43.9153 65.6477 42.727 63.8645C41.5386 62.0813 40.9044 59.9864 40.9043 57.8435C40.9042 56.4084 41.1887 54.9875 41.7411 53.663C42.2935 52.3385 43.1031 51.1367 44.1229 50.127C45.1427 49.1173 46.3525 48.3198 47.6824 47.7805C49.0123 47.2413 50.436 46.9711 51.871 46.9854Z" fill="white"/>
<path fill-rule="evenodd" clip-rule="evenodd" d="M29.3775 49.1571C30.738 49.1714 32.0638 49.5878 33.1881 50.3541C34.3124 51.1204 35.1849 52.2021 35.6957 53.4632C36.2065 54.7242 36.3327 56.1082 36.0586 57.4409C35.7844 58.7736 35.1221 59.9954 34.155 60.9524C33.1879 61.9095 31.9593 62.559 30.6238 62.8192C29.2883 63.0795 27.9057 62.9387 26.6501 62.4148C25.3944 61.8909 24.3218 61.0072 23.5673 59.8749C22.8129 58.7427 22.4102 57.4126 22.4102 56.052C22.4149 55.1418 22.5989 54.2414 22.9516 53.4023C23.3043 52.5632 23.8188 51.8018 24.4658 51.1615C25.1128 50.5213 25.8795 50.0147 26.7223 49.6708C27.565 49.3269 28.4673 49.1523 29.3775 49.1571Z" fill="#E54323"/>
<path fill-rule="evenodd" clip-rule="evenodd" d="M23.3143 90.3093L17.3061 70.9457L30.2635 58.2779C30.4356 58.1139 30.5737 57.9177 30.67 57.7003C30.7662 57.4829 30.8188 57.2487 30.8245 57.0111C30.8245 57.0111 31.3131 39.62 31.4579 34.2995L63.7608 28.8705L63.1455 25.2511L29.2319 30.9154C28.7971 30.9769 28.3995 31.1944 28.1131 31.5273C27.8268 31.8603 27.6713 32.286 27.6756 32.7251L27.0241 56.251L13.7953 69.1541C13.5596 69.3843 13.3911 69.6745 13.3082 69.9934C13.2253 70.3124 13.2311 70.6479 13.3248 70.9638L19.6587 91.4313L23.3143 90.3093Z" fill="#E54323"/>
<path fill-rule="evenodd" clip-rule="evenodd" d="M62.0601 82.0933L55.509 63.4535L84.9707 83.2334C85.1887 83.38 85.4348 83.4799 85.6933 83.5266C85.9518 83.5733 86.2172 83.5659 86.4728 83.5049C86.7266 83.446 86.9647 83.3331 87.1708 83.1738C87.3769 83.0146 87.5462 82.8127 87.6671 82.5819L101.819 56.7215C102.024 56.3624 102.1 55.9439 102.034 55.5356C101.968 55.1273 101.765 54.7539 101.457 54.4775L87.6129 41.8097L99.6835 33.7928L97.6023 30.7163L83.523 40.0905C83.2853 40.2419 83.0863 40.4467 82.9418 40.6886C82.7972 40.9306 82.7112 41.2029 82.6905 41.4839C82.6668 41.7635 82.7084 42.0447 82.8121 42.3053C82.9157 42.566 83.0786 42.799 83.2877 42.986L97.7652 56.2329L85.3327 78.9806L52.9393 57.2644C52.6189 57.0385 52.2364 56.9173 51.8444 56.9173C51.4524 56.9173 51.07 57.0385 50.7496 57.2644C50.4326 57.4957 50.1995 57.8238 50.0852 58.1992C49.971 58.5745 49.9818 58.9769 50.1161 59.3455L58.5312 83.2696L62.0601 82.0933Z" fill="white"/>
<path d="M75.8138 96.7575L45.0918 97.9861L45.24 101.693L75.962 100.464L75.8138 96.7575Z" fill="#E54323"/>
<path fill-rule="evenodd" clip-rule="evenodd" d="M47.0212 99.3939L41.2664 75.7231L37.6289 76.5918L43.3837 100.263L47.0212 99.3939Z" fill="#E54323"/>
</svg>
