<svg width="230" height="144" viewBox="0 0 230 144" fill="none" xmlns="http://www.w3.org/2000/svg">
<g clip-path="url(#clip0_decor3)">
<path fill-rule="evenodd" clip-rule="evenodd" d="M179.284 113.989C179.408 126.749 175.744 139.258 168.756 149.928C161.768 160.598 151.772 168.947 140.037 173.917C128.302 178.886 115.358 180.251 102.847 177.838C90.3358 175.425 78.8231 169.343 69.77 160.364C60.717 151.385 54.5321 139.915 52.0005 127.409C49.469 114.903 50.705 101.925 55.5516 90.1242C60.3982 78.3231 68.6368 68.2304 79.2215 61.1277C89.8061 54.0251 102.259 50.2328 115 50.2322C131.954 50.1517 148.248 56.8142 160.301 68.7564C172.354 80.6986 179.182 96.9439 179.284 113.924V113.989ZM163.213 113.924C163.316 123.496 160.576 132.883 155.341 140.891C150.106 148.9 142.612 155.17 133.812 158.904C125.012 162.639 115.302 163.669 105.916 161.865C96.5292 160.061 87.8901 155.503 81.0955 148.771C74.3008 142.039 69.6573 133.437 67.7546 124.056C65.8519 114.675 66.776 104.939 70.4095 96.0858C74.0429 87.2321 80.2218 79.6598 88.1612 74.3306C96.1007 69.0014 105.442 66.1558 115 66.1552C127.717 66.092 139.938 71.088 148.979 80.0452C158.019 89.0025 163.139 101.188 163.213 113.924Z" fill="#E54323"/>
<path fill-rule="evenodd" clip-rule="evenodd" d="M207.566 113.989C207.44 138.455 197.619 161.869 180.261 179.084C162.902 196.299 139.429 205.905 115.001 205.79C63.9184 205.79 22.4355 164.74 22.4355 114.032C22.4355 63.325 63.9184 22.1453 115.001 22.1453C139.421 22.0304 162.889 31.6304 180.245 48.8359C197.602 66.0414 207.429 89.4445 207.566 113.903V113.989ZM194.623 113.903C194.798 129.696 190.283 145.185 181.651 158.403C173.02 171.62 160.661 181.971 146.143 188.14C131.626 194.308 115.606 196.017 100.118 193.049C84.6291 190.08 70.3707 182.568 59.1532 171.468C47.9357 160.367 40.2652 146.178 37.1158 130.702C33.9664 115.226 35.4802 99.1618 41.4648 84.5494C47.4495 69.937 57.6352 57.4355 70.7282 48.6326C83.8213 39.8296 99.2311 35.1223 115.001 35.1084C135.985 35.0107 156.15 43.2585 171.067 58.0404C185.983 72.8223 194.433 92.9296 194.558 113.946" fill="white"/>
<path fill-rule="evenodd" clip-rule="evenodd" d="M230 113.989C230 176.904 178.486 228 115 228C51.5138 228 0 176.904 0 113.989C0 51.0748 51.5354 0 115 0C178.465 0 230 51.0748 230 113.989ZM220.249 113.989C220.249 171.567 173.093 218.321 115 218.321C56.9068 218.321 9.75052 171.567 9.75052 113.989C9.75052 56.4113 56.9068 9.6791 114.978 9.6791C173.05 9.6791 220.228 56.4113 220.228 113.989" fill="#E54323"/>
</g>
<defs>
<clipPath id="clip0_decor3">
<rect width="230" height="228" fill="white"/>
</clipPath>
</defs>
</svg>
