<svg width="123" height="179" viewBox="0 0 123 179" fill="none" xmlns="http://www.w3.org/2000/svg">
<path fill-rule="evenodd" clip-rule="evenodd" d="M37.3197 141.679C37.32 141.679 37.3202 141.679 37.3203 141.679C37.3205 141.679 37.3207 141.68 37.321 141.68C37.3344 141.694 37.5173 141.887 38.2099 142.047C38.9818 142.225 40.2601 142.325 42.1699 142.083C46.0514 141.59 51.3854 139.835 57.9224 136.525C70.9087 129.949 86.8884 118.137 102.513 102.513C118.137 86.8882 129.949 70.9086 136.525 57.9222C139.835 51.3852 141.591 46.0512 142.083 42.1698C142.326 40.26 142.225 38.9817 142.047 38.2097C141.887 37.5171 141.694 37.3343 141.68 37.3209L141.679 37.3202L141.679 37.3195C141.665 37.3054 141.483 37.1129 140.79 36.9528C140.018 36.7744 138.74 36.674 136.83 36.9164C132.948 37.4091 127.614 39.1646 121.077 42.4748C108.091 49.0509 92.1114 60.8627 76.4871 76.4869C60.8628 92.1112 49.0511 108.091 42.475 121.077C39.1648 127.614 37.4093 132.948 36.9166 136.83C36.6742 138.739 36.7745 140.018 36.953 140.79C37.1131 141.482 37.3055 141.665 37.3197 141.679ZM27.1409 113.312C34.7404 98.3049 47.7835 80.883 64.3333 64.3332C80.8832 47.7833 98.3051 34.7402 113.313 27.1407C120.772 23.3631 128.083 20.7007 134.666 19.8652C141.105 19.0479 148.492 19.8254 153.833 25.1664C159.174 30.5074 159.952 37.895 159.134 44.3341C158.299 50.9163 155.636 58.2272 151.859 65.6871C144.259 80.6945 131.216 98.1165 114.666 114.666C98.1166 131.216 80.6947 144.259 65.6873 151.859C58.2274 155.636 50.9164 158.299 44.3343 159.134C37.8952 159.952 30.5076 159.174 25.1666 153.833C19.8255 148.492 19.048 141.104 19.8654 134.665C20.7008 128.083 23.3633 120.772 27.1409 113.312Z" fill="#E54323"/>
<path fill-rule="evenodd" clip-rule="evenodd" d="M37.3219 37.3197C37.3215 37.32 37.3213 37.3202 37.3212 37.3203C37.3211 37.3205 37.3208 37.3207 37.3205 37.321C37.3064 37.3344 37.1139 37.5173 36.9538 38.2099C36.7754 38.9818 36.675 40.2601 36.9174 42.1699C37.4101 46.0514 39.1656 51.3854 42.4758 57.9224C49.0519 70.9087 60.8637 86.8884 76.488 102.513C92.1122 118.137 108.092 129.949 121.078 136.525C127.615 139.835 132.949 141.591 136.831 142.083C138.741 142.326 140.019 142.225 140.791 142.047C141.483 141.887 141.666 141.694 141.68 141.68L141.68 141.679L141.681 141.679C141.695 141.665 141.888 141.483 142.048 140.79C142.226 140.018 142.326 138.74 142.084 136.83C141.591 132.948 139.836 127.614 136.526 121.077C129.95 108.091 118.138 92.1114 102.514 76.4871C86.8893 60.8628 70.9096 49.0511 57.9232 42.475C51.3862 39.1648 46.0522 37.4093 42.1708 36.9166C40.261 36.6742 38.9827 36.7745 38.2107 36.953C37.5181 37.1131 37.3353 37.3055 37.3219 37.3197ZM65.6881 27.1409C80.6955 34.7404 98.1175 47.7835 114.667 64.3333C131.217 80.8832 144.26 98.3051 151.86 113.313C155.637 120.772 158.3 128.083 159.135 134.666C159.953 141.105 159.175 148.492 153.834 153.833C148.493 159.174 141.105 159.952 134.666 159.134C128.084 158.299 120.773 155.636 113.313 151.859C98.306 144.259 80.884 131.216 64.3342 114.666C47.7843 98.1166 34.7412 80.6947 27.1417 65.6873C23.3642 58.2274 20.7017 50.9164 19.8662 44.3343C19.0489 37.8952 19.8264 30.5076 25.1674 25.1666C30.5084 19.8255 37.896 19.048 44.3351 19.8654C50.9173 20.7008 58.2282 23.3633 65.6881 27.1409Z" fill="#E54323"/>
</svg>
