<svg width="106" height="122" viewBox="0 0 106 122" fill="none" xmlns="http://www.w3.org/2000/svg">
<g clip-path="url(#clip0_decor2)">
<path fill-rule="evenodd" clip-rule="evenodd" d="M77.2759 63.5686C75.6193 62.4158 73.7872 61.0418 72.007 59.5201C56.0576 45.8313 44.4058 36.5402 36.6244 33.1493C28.4465 29.5774 22.8252 31.1806 19.1774 35.9368C16.0422 40.0718 16.0274 45.8015 19.3847 52.5093C22.0096 57.7524 26.7684 64.0274 30.9119 70.523C34.2701 75.7511 37.4314 80.9761 37.3871 85.9393C37.3515 89.947 34.3609 92.9889 27.7486 95.7071C26.9645 96.0271 26.251 96.5004 25.6496 97.0996C25.0482 97.6987 24.5709 98.4117 24.2454 99.1971C23.9199 99.9825 23.7528 100.825 23.7537 101.674C23.7547 102.524 23.9236 103.365 24.2508 104.148C24.9218 105.734 26.1854 106.99 27.7703 107.647C29.3553 108.305 31.1352 108.31 32.7282 107.663C46.1862 102.14 50.3235 94.2189 50.3795 86.0749C50.4279 80.7273 48.4092 74.9751 45.2916 69.2642C41.7674 62.8101 36.8467 56.355 33.2734 50.6837C32.0811 48.8839 31.0614 46.9741 30.2281 44.9798C30.1667 44.824 30.1144 44.6646 30.0717 44.5026C30.5474 44.6252 31.0133 44.7833 31.4654 44.9755C35.7434 47.1047 39.7732 49.7027 43.4815 52.7225C49.1314 57.0099 55.8003 62.6151 63.5881 69.3037C70.335 75.0791 75.2071 78.1632 78.4164 79.334C83.2775 81.1216 86.5594 79.899 88.638 78.0929C90.7165 76.2867 92.2899 72.9522 91.6936 67.8423C90.4445 57.2342 78.4963 32.7646 69.1357 13.354C68.3758 11.8043 67.0395 10.6188 65.4151 10.0533C63.7907 9.48774 62.0083 9.58738 60.4523 10.3307C59.6881 10.6963 59.0029 11.2102 58.4364 11.8427C57.8699 12.4752 57.4332 13.2139 57.1516 14.0161C56.8701 14.8182 56.7491 15.6681 56.7957 16.5165C56.8424 17.3649 57.0557 18.1951 57.4234 18.9592C63.9002 32.3859 71.8121 48.299 76.1264 59.8776C76.5594 61.0757 76.9591 62.3519 77.3074 63.5895" fill="#FCBA27"/>
</g>
<defs>
<clipPath id="clip0_decor2">
<rect width="80.2851" height="104.099" fill="white" transform="translate(27.9414) rotate(15)"/>
</clipPath>
</defs>
</svg>
