<svg width="163" height="146" viewBox="0 0 163 146" fill="none" xmlns="http://www.w3.org/2000/svg">
<g clip-path="url(#clip0)">
<path fill-rule="evenodd" clip-rule="evenodd" d="M156.411 25.4704C155.515 17.8906 151.639 10.9734 145.633 6.23414C139.627 1.49489 131.98 -0.680086 124.368 0.185656L25.825 10.956C22.0547 11.3509 18.3996 12.4823 15.0687 14.2855C11.7378 16.0888 8.79657 18.5285 6.41311 21.4651C4.02964 24.4017 2.25082 27.7775 1.17831 31.3994C0.105796 35.0214 -0.239414 38.8185 0.162614 42.5735L6.56662 99.4527C7.46835 107.034 11.3487 113.952 17.3584 118.69C23.3681 123.429 31.0177 125.603 38.633 124.737L60.5597 122.426L52.6939 146.093L84.0177 119.768L137.199 113.967C140.972 113.581 144.632 112.456 147.968 110.658C151.304 108.859 154.251 106.423 156.639 103.487C159.028 100.552 160.811 97.1758 161.886 93.5525C162.962 89.9292 163.309 86.13 162.907 82.3728L156.411 25.4704Z" fill="#2B268E"/>
<path fill-rule="evenodd" clip-rule="evenodd" d="M26.1265 67.0023C26.1367 67.079 26.1367 67.1566 26.1265 67.2333C26.1265 68.1809 25.8481 70.3998 25.8481 71.4167C25.8323 73.5204 25.9797 75.6221 26.2889 77.7032C26.6254 79.8314 27.2416 81.9062 28.1219 83.8742C28.5201 84.8505 29.1861 85.6955 30.0437 86.3126C30.9012 86.9298 31.9157 87.2942 32.9714 87.3641C35.0319 87.4269 37.088 87.1377 39.0505 86.509C40.71 85.9397 42.4312 85.5673 44.1784 85.3996C44.3779 85.4252 44.5805 85.4081 44.7729 85.3496C44.9652 85.291 45.1429 85.1923 45.2939 85.06C45.4449 84.9277 45.5659 84.7648 45.6488 84.5823C45.7317 84.3997 45.7746 84.2016 45.7746 84.0013C45.7746 83.8009 45.7317 83.6029 45.6488 83.4204C45.5659 83.2378 45.4449 83.0749 45.2939 82.9426C45.1429 82.8103 44.9652 82.7116 44.7729 82.653C44.5805 82.5945 44.3779 82.5774 44.1784 82.603C42.7614 82.665 41.358 82.9058 40.0019 83.3195C38.2453 83.8832 36.4447 84.3006 34.6188 84.5675C33.8547 84.7545 33.049 84.6726 32.3386 84.3356C31.6282 83.9986 31.0567 83.4273 30.7207 82.7186C29.9492 80.9702 29.4109 79.1286 29.1197 77.241C28.8183 75.3145 28.6785 73.3663 28.702 71.4167C28.702 70.4691 28.9109 68.3428 28.9805 67.4414C28.9805 67.1872 28.9805 66.9791 28.9805 66.9098C28.9805 66.5297 28.8289 66.1652 28.5591 65.8965C28.2893 65.6278 27.9234 65.4768 27.5418 65.4768C27.2991 65.472 27.0595 65.5314 26.8475 65.6492C26.6354 65.767 26.4588 65.9388 26.3354 66.147C26.1774 66.4032 26.1043 66.7024 26.1265 67.0023ZM27.681 68.2965C27.902 68.2865 28.1166 68.2195 28.3037 68.102C28.4908 67.9845 28.6441 67.8205 28.7484 67.6263C28.6361 67.8138 28.4809 67.9723 28.2954 68.0887C28.1099 68.2052 27.8994 68.2764 27.681 68.2965ZM26.2889 67.5569C26.4079 67.7767 26.5844 67.9603 26.7995 68.0885C26.9757 68.1943 27.1744 68.2576 27.3795 68.2734C27.1485 68.2681 26.9236 68.198 26.7308 68.0713C26.5379 67.9446 26.3848 67.7663 26.2889 67.5569Z" fill="white"/>
<path fill-rule="evenodd" clip-rule="evenodd" d="M30.1868 78.882C31.0899 78.4059 32.0195 77.9815 32.9712 77.6109C35.8019 76.5477 39.0039 75.6001 39.2127 75.5077C39.548 75.3388 39.8037 75.046 39.9251 74.6919C40.0465 74.3377 40.0239 73.9503 39.8623 73.6124C39.6843 73.2809 39.3845 73.0308 39.0255 72.9144C38.6665 72.7981 38.2764 72.8246 37.9366 72.9884C37.7278 73.104 33.8065 74.2134 30.9758 75.2997C29.806 75.7251 28.7039 76.3167 27.7041 77.0561C27.4488 77.2574 27.2491 77.5199 27.1233 77.819C26.9975 78.1181 26.9498 78.4441 26.9848 78.7665C27.0302 79.116 27.1776 79.4446 27.4085 79.7116C27.6394 79.9786 27.9438 80.1723 28.2841 80.2688C28.4577 80.3401 28.6437 80.3763 28.8314 80.3753C29.019 80.3743 29.2047 80.3361 29.3774 80.2629C29.5502 80.1898 29.7066 80.0832 29.8376 79.9493C29.9685 79.8154 30.0716 79.6569 30.1405 79.483C30.1985 79.2633 30.1985 79.0324 30.1405 78.8127" fill="white"/>
<path fill-rule="evenodd" clip-rule="evenodd" d="M27.8203 68.0888C29.1428 67.6266 30.4885 67.2336 31.7647 66.8869C34.7114 66.0549 37.2406 65.5002 37.9135 65.3153C38.2735 65.205 38.5748 64.9567 38.751 64.6251C38.9272 64.2936 38.9639 63.9058 38.8531 63.5472C38.7423 63.1886 38.4932 62.8885 38.1603 62.713C37.8274 62.5374 37.4382 62.5008 37.0782 62.6111C36.4053 62.8191 33.9226 63.3739 30.9991 64.1828C29.6765 64.5295 28.2611 64.9686 26.8921 65.4308C26.7156 65.4881 26.5524 65.58 26.412 65.701C26.2717 65.8221 26.1571 65.9699 26.075 66.1357C25.9928 66.3015 25.9447 66.482 25.9336 66.6666C25.9226 66.8512 25.9487 67.0361 26.0104 67.2105C26.0704 67.3872 26.1651 67.5502 26.2888 67.6902C26.4125 67.8302 26.5629 67.9443 26.7312 68.026C26.8996 68.1077 27.0825 68.1553 27.2694 68.1661C27.4563 68.1769 27.6436 68.1506 27.8203 68.0888Z" fill="white"/>
<path fill-rule="evenodd" clip-rule="evenodd" d="M63.5295 75.785C63.8316 75.8682 64.1526 75.8524 64.4451 75.7401C64.7375 75.6277 64.9859 75.4247 65.1537 75.161C65.254 75.0059 65.3217 74.8322 65.3527 74.6503C65.3836 74.4685 65.3772 74.2822 65.3339 74.1028C65.2905 73.9235 65.211 73.7549 65.1003 73.607C64.9896 73.4591 64.8498 73.3352 64.6896 73.2426C64.3356 73.0253 63.9204 72.9281 63.5063 72.9653C62.8533 73.0085 62.2074 73.1248 61.5805 73.312C58.657 74.0747 53.7379 76.0161 53.7379 76.0161C53.5658 76.0859 53.4091 76.1888 53.2768 76.3189C53.1446 76.449 53.0394 76.6039 52.9673 76.7745C52.8951 76.9451 52.8574 77.1282 52.8562 77.3134C52.8551 77.4985 52.8905 77.682 52.9606 77.8535C53.0307 78.025 53.134 78.1811 53.2647 78.3128C53.3953 78.4445 53.5507 78.5493 53.7219 78.6212C53.8932 78.6931 54.0771 78.7307 54.2629 78.7318C54.4488 78.733 54.633 78.6976 54.8052 78.6278C57.5339 77.517 60.3319 76.5828 63.1815 75.8312H63.5295" fill="white"/>
<path fill-rule="evenodd" clip-rule="evenodd" d="M53.8537 71.0701C56.058 70.3998 60.629 69.2211 61.5107 68.99C61.8759 68.8875 62.1858 68.6454 62.3727 68.3164C62.5596 67.9874 62.6083 67.5981 62.5084 67.2334C62.4552 67.0558 62.3675 66.8904 62.2501 66.7466C62.1326 66.6027 61.9879 66.4834 61.8241 66.3954C61.6603 66.3074 61.4806 66.2524 61.2954 66.2336C61.1102 66.2148 60.9232 66.2326 60.7449 66.2859C59.7008 66.5633 53.6217 68.1118 52.0671 68.5971C51.6718 68.7114 51.3175 68.936 51.0462 69.2443C50.8805 69.4397 50.7714 69.6762 50.7303 69.9287C50.6893 70.1812 50.718 70.44 50.8133 70.6775C50.9087 70.915 51.0671 71.1222 51.2716 71.2768C51.4761 71.4315 51.7191 71.5278 51.9743 71.5555C52.2975 71.6013 52.6256 71.6013 52.9488 71.5555C53.3015 71.5146 53.6253 71.3409 53.8537 71.0701Z" fill="white"/>
<path fill-rule="evenodd" clip-rule="evenodd" d="M83.4607 74.5601C83.2037 74.4826 82.9716 74.3391 82.7878 74.1441C82.0481 73.4068 81.4435 72.5464 81.0013 71.6017C79.7127 68.9846 78.7466 66.2219 78.1241 63.3738C77.8125 61.8593 77.3937 60.3687 76.8711 58.9131C76.7968 58.6874 76.6743 58.4805 76.5119 58.3065C76.3495 58.1326 76.1512 57.9959 75.9306 57.9058C75.71 57.8157 75.4723 57.7744 75.2341 57.7847C74.9959 57.795 74.7627 57.8567 74.5508 57.9655C73.8544 58.3845 73.3473 59.0552 73.1355 59.8376C72.6612 61.6252 72.4194 63.4662 72.4162 65.3152C72.1238 70.561 72.5295 75.8223 73.6228 80.9621C73.6928 81.1351 73.7965 81.2927 73.9277 81.4258C74.0589 81.5589 74.2151 81.665 74.3875 81.738C74.5599 81.811 74.7449 81.8494 74.9322 81.8511C75.1195 81.8529 75.3053 81.8178 75.479 81.748C75.6526 81.6781 75.8108 81.575 75.9445 81.4443C76.0781 81.3136 76.1846 81.158 76.2579 80.9863C76.3311 80.8146 76.3697 80.6301 76.3714 80.4436C76.3732 80.257 76.3379 80.072 76.2678 79.899C75.5029 76.5489 75.1524 73.1183 75.2238 69.6834C75.1277 67.8511 75.1277 66.015 75.2238 64.1827C76.006 67.7254 77.3201 71.1304 79.1218 74.2827C79.721 75.2409 80.5106 76.0667 81.4421 76.7095C81.8662 76.994 82.3466 77.1847 82.8509 77.2684C83.3553 77.3521 83.8719 77.3271 84.3657 77.1949C84.9382 77.0194 85.4204 76.6302 85.7114 76.1086C86.2392 75.096 86.5922 74.0021 86.7555 72.8729C87.244 69.5176 87.5461 66.1382 87.6605 62.7498L87.9853 64.0902L89.2382 69.7528L90.6768 76.178C90.7701 76.5402 91.0019 76.8518 91.3227 77.0461C91.6435 77.2404 92.0279 77.3021 92.3938 77.218C92.5751 77.177 92.7466 77.1009 92.8984 76.994C93.0501 76.887 93.1792 76.7514 93.2783 76.5947C93.3775 76.438 93.4447 76.2634 93.476 76.0808C93.5074 75.8983 93.5023 75.7114 93.4612 75.5308L92.0226 69.1518L90.9784 63.4662L89.7255 58.3353C89.5737 57.49 89.1103 56.7316 88.4262 56.209C88.0249 55.9389 87.5352 55.8314 87.0572 55.9085C86.5655 56.0293 86.127 56.307 85.8086 56.6993C85.4903 57.0916 85.3094 57.5768 85.2937 58.081C85.1313 59.1904 85.0385 64.4369 84.5977 68.9207C84.492 70.5189 84.2435 72.1044 83.8552 73.6587C83.7693 73.9486 83.6686 74.2341 83.5535 74.5139" fill="white"/>
<path fill-rule="evenodd" clip-rule="evenodd" d="M112.789 61.571C113.926 56.3245 111.095 53.1582 107.708 52.4879C105.794 52.1681 103.828 52.5395 102.165 53.5353C100.501 54.5311 99.2498 56.0857 98.6352 57.9192C95.0388 66.4245 97.4518 73.2889 102.092 76.409C106.733 79.5292 114.228 78.9976 120.446 71.7866C120.683 71.4991 120.799 71.131 120.769 70.76C120.739 70.3891 120.564 70.0444 120.284 69.799C119.989 69.5665 119.617 69.4539 119.242 69.4839C118.868 69.5139 118.518 69.6843 118.265 69.9608C113.299 75.7388 107.522 76.6171 103.693 74.0747C99.865 71.5324 98.3336 65.9161 101.257 59.0055C101.635 57.7901 102.43 56.7461 103.504 56.0571C104.577 55.3681 105.86 55.0782 107.128 55.2383C109.216 55.6543 110.701 57.7575 110.005 60.9932C109.967 61.1753 109.965 61.3631 110 61.5458C110.034 61.7286 110.105 61.9028 110.207 62.0584C110.31 62.214 110.442 62.348 110.596 62.4527C110.75 62.5575 110.924 62.6309 111.107 62.6688C111.29 62.7068 111.478 62.7085 111.662 62.6739C111.845 62.6392 112.02 62.5689 112.176 62.4669C112.332 62.365 112.467 62.2334 112.572 62.0797C112.677 61.926 112.751 61.7531 112.789 61.571Z" fill="white"/>
<path fill-rule="evenodd" clip-rule="evenodd" d="M117.708 46.6406C117.695 46.5719 117.695 46.5012 117.708 46.4325C117.759 46.2852 117.829 46.1453 117.917 46.0165C118.817 44.8077 120.087 43.9235 121.537 43.4973C122.205 43.2666 122.933 43.2666 123.602 43.4973C123.889 43.6484 124.144 43.855 124.351 44.1049C124.558 44.3549 124.714 44.6432 124.808 44.9534C125.074 45.7414 125.18 46.5742 125.12 47.4033C125.06 48.2325 124.836 49.0416 124.46 49.7838C123.051 52.3813 121.413 54.8486 119.564 57.1566C119.379 57.434 118.984 57.7575 118.729 58.058C118.479 58.3574 118.289 58.7029 118.172 59.0749C118.069 59.3901 118.061 59.7283 118.147 60.0484C118.234 60.3684 118.412 60.6565 118.659 60.8777C118.855 61.0702 119.094 61.2144 119.356 61.2987C119.618 61.3829 119.896 61.405 120.168 61.3631C120.789 61.1951 121.383 60.9382 121.931 60.6003C125.353 58.7486 128.982 57.3057 132.744 56.3015C132.879 56.4729 133.052 56.6117 133.249 56.7077C133.445 56.8038 133.661 56.8545 133.88 56.8561C134.256 56.8561 134.616 56.7076 134.881 56.4432C135.147 56.1788 135.296 55.8202 135.296 55.4463C135.312 55.1017 135.23 54.7595 135.057 54.4604C134.884 54.1614 134.629 53.918 134.321 53.7591C133.275 53.4086 132.142 53.4086 131.096 53.7591C128.416 54.5861 125.802 55.6136 123.277 56.833C124.753 54.9932 126.029 53.0021 127.082 50.8932C127.61 49.8225 127.917 48.6571 127.984 47.4662C128.052 46.2752 127.879 45.0828 127.476 43.9595C127.253 43.2981 126.898 42.6887 126.431 42.1682C125.964 41.6478 125.396 41.2272 124.762 40.9318C123.832 40.6046 122.842 40.4825 121.861 40.5743C120.879 40.6661 119.929 40.9695 119.077 41.4634C117.389 42.2632 116.006 43.5846 115.133 45.2307C114.926 45.6435 114.819 46.0985 114.819 46.5597C114.819 47.0209 114.926 47.4757 115.133 47.8886C115.346 48.2851 115.644 48.6308 116.004 48.9021C116.365 49.1734 116.78 49.3638 117.221 49.4603C117.404 49.5396 117.602 49.5794 117.802 49.577C118.002 49.5746 118.199 49.5302 118.38 49.4465C118.561 49.3629 118.723 49.2419 118.854 49.0916C118.985 48.9413 119.082 48.7651 119.14 48.5745C119.198 48.384 119.214 48.1834 119.189 47.9861C119.163 47.7887 119.096 47.5989 118.991 47.4293C118.886 47.2598 118.747 47.1141 118.582 47.0021C118.417 46.89 118.23 46.8141 118.033 46.7792L117.708 46.6406Z" fill="white"/>
</g>
<defs>
<clipPath id="clip0">
<rect width="163" height="146" fill="white"/>
</clipPath>
</defs>
</svg>
