<svg width="63" height="97" viewBox="0 0 63 97" fill="none" xmlns="http://www.w3.org/2000/svg">
<g clip-path="url(#clip0_actionsdecor_2)">
<path fill-rule="evenodd" clip-rule="evenodd" d="M2.84199 56.6392C4.4203 56.6963 6.20783 56.8247 8.02374 57.0723C24.3165 59.3265 35.9187 60.5067 42.4754 59.443C49.3696 58.3305 52.39 54.8951 52.7764 50.2204C53.0886 46.1716 50.6721 42.3948 45.6222 39.4022C41.6745 37.0634 35.8856 34.9492 30.4082 32.4291C25.9843 30.4108 21.6913 28.3109 19.6188 25.0261C17.945 22.3736 18.6249 19.1054 21.8253 14.5165C22.2058 13.9739 22.4749 13.3602 22.6169 12.7113C22.759 12.0623 22.7712 11.391 22.6528 10.7364C22.5344 10.0817 22.2878 9.45674 21.9272 8.89785C21.5667 8.33896 21.0995 7.85726 20.5528 7.48077C19.4396 6.72114 18.076 6.42935 16.7547 6.66801C15.4333 6.90668 14.2596 7.65679 13.4854 8.75734C6.96787 18.0909 7.59946 25.0556 11.0113 30.4387C13.2439 33.9783 17.0083 36.9088 21.4783 39.3468C26.5305 42.1017 32.5023 44.266 37.2553 46.485C38.8021 47.1644 40.2819 47.9895 41.6748 48.949C41.7812 49.0255 41.8831 49.1083 41.9798 49.1968C41.6149 49.3176 41.2413 49.4108 40.8624 49.4758C37.1455 49.8862 33.3934 49.883 29.6743 49.4661C24.1407 49.0371 17.3784 48.1725 9.42104 47.0687C2.53537 46.1252 -1.97689 46.1588 -4.58463 46.7473C-8.54058 47.6294 -10.1826 49.8238 -10.7857 51.8926C-11.3887 53.9614 -11.012 56.822 -8.45576 59.9322C-3.14157 66.3842 15.0833 77.4274 29.463 86.2373C30.6193 86.9353 32.0007 87.1495 33.3092 86.8338C34.6176 86.5181 35.7484 85.6978 36.4576 84.5497C36.8057 83.9855 37.039 83.3572 37.144 82.701C37.2489 82.0449 37.2235 81.3739 37.0691 80.7267C36.9147 80.0796 36.6344 79.4691 36.2445 78.9305C35.8545 78.392 35.3626 77.936 34.797 77.5888C24.8491 71.4957 12.9037 64.3741 5.16145 58.5814C4.36915 57.9763 3.56566 57.3057 2.81241 56.6388" fill="#1BA4DF"/>
</g>
<defs>
<clipPath id="clip0_actionsdecor_2">
<rect width="62.8273" height="81.4626" fill="white" transform="translate(62.2266 77.58) rotate(162.239)"/>
</clipPath>
</defs>
</svg>
