<svg width="76" height="88" viewBox="0 0 76 88" fill="none" xmlns="http://www.w3.org/2000/svg">
<path fill-rule="evenodd" clip-rule="evenodd" d="M61.2769 42.5686C59.6203 41.4158 57.7882 40.0418 56.008 38.5201C40.0585 24.8313 28.4068 15.5402 20.6254 12.1493C12.4475 8.57744 6.82618 10.1806 3.17838 14.9368C0.043184 19.0718 0.0283465 24.8015 3.38563 31.5093C6.01054 36.7524 10.7694 43.0274 14.9128 49.523C18.2711 54.7511 21.4323 59.9761 21.3881 64.9393C21.3525 68.947 18.3619 71.9889 11.7496 74.7071C10.9655 75.0271 10.2519 75.5004 9.65055 76.0996C9.04914 76.6987 8.57184 77.4117 8.24638 78.1971C7.92091 78.9825 7.75379 79.8246 7.75472 80.6745C7.75565 81.5243 7.92462 82.365 8.2518 83.1477C8.92278 84.7338 10.1864 85.9903 11.7713 86.6475C13.3562 87.3047 15.1362 87.3103 16.7292 86.6629C30.1872 81.1399 34.3245 73.2189 34.3805 65.0749C34.4289 59.7273 32.4102 53.9751 29.2926 48.2642C25.7684 41.8101 20.8477 35.355 17.2744 29.6837C16.0821 27.8839 15.0624 25.9741 14.2291 23.9798C14.1676 23.824 14.1154 23.6646 14.0727 23.5026C14.5484 23.6252 15.0142 23.7833 15.4664 23.9755C19.7444 26.1047 23.7742 28.7027 27.4825 31.7225C33.1324 36.0099 39.8013 41.6151 47.589 48.3037C54.336 54.0791 59.2081 57.1632 62.4174 58.334C67.2785 60.1216 70.5604 58.899 72.6389 57.0929C74.7175 55.2867 76.2909 51.9522 75.6946 46.8423C74.4455 36.2342 62.4972 11.7646 53.1367 -7.64605C52.3768 -9.19572 51.0405 -10.3812 49.4161 -10.9467C47.7917 -11.5123 46.0093 -11.4126 44.4533 -10.6693C43.6891 -10.3037 43.0039 -9.78984 42.4374 -9.15732C41.8709 -8.52479 41.4342 -7.78613 41.1526 -6.98395C40.871 -6.18177 40.7501 -5.33195 40.7967 -4.48354C40.8434 -3.63513 41.0567 -2.80492 41.4244 -2.04082C47.9012 11.3859 55.8131 27.299 60.1274 38.8776C60.5604 40.0757 60.9601 41.3519 61.3084 42.5895" fill="#FCBA27"/>
</svg>
