<svg width="179" height="121" viewBox="0 0 179 121" fill="none" xmlns="http://www.w3.org/2000/svg">
<path fill-rule="evenodd" clip-rule="evenodd" d="M37.3197 141.679C37.32 141.679 37.3202 141.679 37.3203 141.68C37.3205 141.68 37.3207 141.68 37.321 141.68C37.3344 141.694 37.5173 141.887 38.2099 142.047C38.9818 142.225 40.2601 142.326 42.1699 142.083C46.0514 141.591 51.3854 139.835 57.9224 136.525C70.9087 129.949 86.8884 118.137 102.513 102.513C118.137 86.8885 129.949 70.9088 136.525 57.9224C139.835 51.3854 141.591 46.0514 142.083 42.17C142.326 40.2602 142.225 38.9819 142.047 38.21C141.887 37.5174 141.694 37.3345 141.68 37.3211L141.679 37.3204L141.679 37.3197C141.665 37.3056 141.483 37.1132 140.79 36.9531C140.018 36.7746 138.74 36.6743 136.83 36.9167C132.948 37.4093 127.614 39.1648 121.077 42.4751C108.091 49.0511 92.1114 60.8629 76.4871 76.4872C60.8628 92.1115 49.0511 108.091 42.475 121.078C39.1648 127.615 37.4093 132.949 36.9166 136.83C36.6742 138.74 36.7745 140.018 36.953 140.79C37.1131 141.483 37.3055 141.665 37.3197 141.679ZM27.1409 113.313C34.7404 98.3052 47.7835 80.8833 64.3333 64.3334C80.8832 47.7836 98.3051 34.7405 113.313 27.141C120.772 23.3634 128.083 20.7009 134.666 19.8655C141.105 19.0481 148.492 19.8256 153.833 25.1667C159.174 30.5077 159.952 37.8952 159.134 44.3344C158.299 50.9165 155.636 58.2275 151.859 65.6874C144.259 80.6948 131.216 98.1167 114.666 114.667C98.1166 131.216 80.6947 144.26 65.6873 151.859C58.2274 155.637 50.9164 158.299 44.3343 159.135C37.8952 159.952 30.5076 159.174 25.1666 153.833C19.8255 148.492 19.048 141.105 19.8654 134.666C20.7008 128.083 23.3633 120.773 27.1409 113.313Z" fill="#E54323"/>
<path fill-rule="evenodd" clip-rule="evenodd" d="M37.3209 37.3197C37.3206 37.32 37.3203 37.3202 37.3202 37.3203C37.3201 37.3205 37.3198 37.3207 37.3195 37.321C37.3054 37.3344 37.113 37.5173 36.9529 38.2099C36.7744 38.9818 36.674 40.2601 36.9165 42.1699C37.4091 46.0514 39.1646 51.3854 42.4748 57.9224C49.0509 70.9087 60.8627 86.8884 76.487 102.513C92.1113 118.137 108.091 129.949 121.077 136.525C127.614 139.835 132.948 141.591 136.83 142.083C138.74 142.326 140.018 142.225 140.79 142.047C141.482 141.887 141.665 141.694 141.679 141.68L141.679 141.679L141.68 141.679C141.694 141.665 141.887 141.483 142.047 140.79C142.225 140.018 142.325 138.74 142.083 136.83C141.59 132.948 139.835 127.614 136.525 121.077C129.949 108.091 118.137 92.1114 102.513 76.4871C86.8883 60.8628 70.9086 49.0511 57.9222 42.475C51.3852 39.1648 46.0512 37.4093 42.1698 36.9166C40.26 36.6742 38.9817 36.7745 38.2097 36.953C37.5172 37.1131 37.3343 37.3055 37.3209 37.3197ZM65.6871 27.1409C80.6946 34.7404 98.1165 47.7835 114.666 64.3333C131.216 80.8832 144.259 98.3051 151.859 113.313C155.636 120.772 158.299 128.083 159.134 134.666C159.952 141.105 159.174 148.492 153.833 153.833C148.492 159.174 141.105 159.952 134.665 159.134C128.083 158.299 120.772 155.636 113.312 151.859C98.305 144.259 80.8831 131.216 64.3332 114.666C47.7833 98.1166 34.7403 80.6947 27.1408 65.6873C23.3632 58.2274 20.7007 50.9164 19.8652 44.3343C19.0479 37.8952 19.8254 30.5076 25.1664 25.1666C30.5075 19.8255 37.895 19.048 44.3341 19.8654C50.9163 20.7008 58.2272 23.3633 65.6871 27.1409Z" fill="#E54323"/>
</svg>
