<svg width="92" height="92" viewBox="0 0 92 92" fill="none" xmlns="http://www.w3.org/2000/svg">
<path d="M45.0988 1.87456C45.462 1.11896 46.538 1.11896 46.9012 1.87456L48.8518 5.9316C49.1788 6.61186 50.1128 6.69841 50.5593 6.08982L53.2221 2.46027C53.7181 1.78429 54.7757 1.982 54.9939 2.79148L56.1658 7.13785C56.3623 7.86663 57.2645 8.12333 57.8152 7.60714L61.0996 4.52868C61.7113 3.95534 62.7145 4.34402 62.7803 5.17982L63.1336 9.66751C63.1928 10.42 64.0325 10.8381 64.6687 10.4319L68.4628 8.00935C69.1694 7.55816 70.0842 8.12458 69.9953 8.95824L69.5179 13.4344C69.4379 14.185 70.1864 14.7502 70.8864 14.4679L75.0611 12.7837C75.8386 12.4701 76.6337 13.1949 76.3931 13.9981L75.1014 18.3103C74.8848 19.0334 75.5167 19.7266 76.2567 19.5776L80.6697 18.6893C81.4916 18.5238 82.14 19.3824 81.756 20.1277L79.6939 24.1292C79.3481 24.8001 79.8419 25.5976 80.5966 25.5872L85.0978 25.5248C85.9361 25.5132 86.4157 26.4764 85.9012 27.1384L83.1389 30.6928C82.6758 31.2888 83.0146 32.1634 83.7584 32.2918L88.1943 33.0577C89.0205 33.2003 89.315 34.2352 88.6876 34.7913L85.3192 37.7777C84.7544 38.2784 84.9268 39.2004 85.6343 39.4633L89.854 41.0312C90.6399 41.3232 90.7392 42.3946 90.0204 42.826L86.1606 45.1426C85.5134 45.531 85.5134 46.469 86.1606 46.8574L90.0204 49.174C90.7392 49.6054 90.6399 50.6768 89.854 50.9688L85.6343 52.5367C84.9268 52.7996 84.7544 53.7216 85.3192 54.2223L88.6876 57.2087C89.315 57.7648 89.0205 58.7997 88.1943 58.9423L83.7584 59.7082C83.0146 59.8366 82.6758 60.7112 83.1389 61.3072L85.9012 64.8616C86.4157 65.5236 85.9361 66.4868 85.0978 66.4752L80.5966 66.4128C79.8419 66.4024 79.3481 67.1999 79.6939 67.8708L81.756 71.8723C82.14 72.6176 81.4916 73.4762 80.6697 73.3107L76.2567 72.4224C75.5167 72.2734 74.8848 72.9666 75.1014 73.6897L76.3931 78.0019C76.6337 78.8051 75.8386 79.5299 75.0611 79.2163L70.8864 77.5322C70.1864 77.2498 69.4379 77.815 69.5179 78.5656L69.9953 83.0418C70.0842 83.8754 69.1694 84.4418 68.4628 83.9907L64.6687 81.5681C64.0325 81.1619 63.1928 81.58 63.1336 82.3325L62.7803 86.8202C62.7145 87.656 61.7113 88.0447 61.0996 87.4713L57.8152 84.3929C57.2645 83.8767 56.3623 84.1334 56.1658 84.8622L54.9939 89.2085C54.7757 90.018 53.7181 90.2157 53.2221 89.5397L50.5593 85.9102C50.1128 85.3016 49.1788 85.3881 48.8518 86.0684L46.9012 90.1254C46.538 90.881 45.462 90.881 45.0988 90.1254L43.1482 86.0684C42.8212 85.3881 41.8872 85.3016 41.4407 85.9102L38.7779 89.5397C38.2819 90.2157 37.2243 90.018 37.0061 89.2085L35.8342 84.8622C35.6377 84.1334 34.7355 83.8767 34.1848 84.3929L30.9004 87.4713C30.2887 88.0447 29.2855 87.656 29.2197 86.8202L28.8664 82.3325C28.8072 81.58 27.9675 81.1619 27.3313 81.5681L23.5372 83.9907C22.8306 84.4418 21.9158 83.8754 22.0047 83.0418L22.4821 78.5656C22.5621 77.815 21.8136 77.2498 21.1136 77.5322L16.9389 79.2163C16.1614 79.5299 15.3663 78.8051 15.6069 78.0019L16.8986 73.6897C17.1152 72.9666 16.4833 72.2734 15.7433 72.4224L11.3303 73.3107C10.5084 73.4762 9.85996 72.6176 10.244 71.8723L12.3061 67.8708C12.6519 67.1999 12.1581 66.4024 11.4034 66.4128L6.90224 66.4752C6.06394 66.4868 5.58434 65.5236 6.0988 64.8616L8.86108 61.3072C9.32425 60.7112 8.98541 59.8366 8.24161 59.7082L3.80566 58.9423C2.97949 58.7997 2.68504 57.7648 3.31238 57.2087L6.68075 54.2223C7.24555 53.7216 7.07319 52.7996 6.36565 52.5367L2.14595 50.9688C1.36005 50.6768 1.26078 49.6054 1.97963 49.174L5.83939 46.8574C6.48658 46.469 6.48658 45.531 5.83939 45.1426L1.97963 42.826C1.26078 42.3946 1.36005 41.3232 2.14595 41.0312L6.36565 39.4633C7.07319 39.2004 7.24555 38.2784 6.68075 37.7777L3.31238 34.7913C2.68504 34.2352 2.97949 33.2003 3.80566 33.0577L8.24161 32.2918C8.98541 32.1634 9.32425 31.2888 8.86108 30.6928L6.0988 27.1384C5.58434 26.4764 6.06394 25.5132 6.90225 25.5248L11.4034 25.5872C12.1581 25.5976 12.6519 24.8001 12.3061 24.1292L10.244 20.1277C9.85996 19.3824 10.5084 18.5238 11.3303 18.6893L15.7433 19.5776C16.4833 19.7266 17.1152 19.0334 16.8986 18.3103L15.6069 13.9981C15.3663 13.1949 16.1614 12.4701 16.9389 12.7837L21.1136 14.4679C21.8136 14.7502 22.5621 14.185 22.4821 13.4344L22.0047 8.95824C21.9158 8.12458 22.8306 7.55817 23.5372 8.00935L27.3313 10.4319C27.9675 10.8381 28.8072 10.42 28.8664 9.66751L29.2197 5.17982C29.2855 4.34402 30.2887 3.95534 30.9004 4.52868L34.1848 7.60714C34.7355 8.12333 35.6377 7.86663 35.8342 7.13785L37.0061 2.79148C37.2243 1.982 38.2819 1.78429 38.7779 2.46028L41.4407 6.08982C41.8872 6.69841 42.8212 6.61186 43.1482 5.9316L45.0988 1.87456Z" fill="#E54323"/>
<path d="M18.3393 38.4345C17.787 38.4345 17.3393 38.8822 17.3393 39.4345V44.9265C17.3393 45.3442 17.6779 45.6828 18.0956 45.6828C18.5133 45.6828 18.8519 45.3442 18.8519 44.9265V40.7846C18.8519 40.2324 19.2996 39.7846 19.8519 39.7846H20.9786C21.5309 39.7846 21.9786 40.2324 21.9786 40.7846V44.9265C21.9786 45.3442 22.3172 45.6828 22.7349 45.6828C23.1526 45.6828 23.4912 45.3442 23.4912 44.9265V39.4345C23.4912 38.8822 23.0435 38.4345 22.4912 38.4345H18.3393Z" fill="white"/>
<path d="M26.1712 38.4345C25.6189 38.4345 25.1712 38.8822 25.1712 39.4345V44.9265C25.1712 45.3442 25.5098 45.6828 25.9275 45.6828C26.3452 45.6828 26.6838 45.3442 26.6838 44.9265V44.084C26.6838 43.5317 27.1315 43.084 27.6838 43.084H28.4807C30.1455 43.084 31.0998 42.2109 31.0998 40.7389C31.0998 39.2872 30.1455 38.4345 28.4807 38.4345H26.1712ZM27.6787 41.7541C27.1292 41.7541 26.6838 41.3087 26.6838 40.7592C26.6838 40.2098 27.1292 39.7643 27.6787 39.7643H28.2675C29.2014 39.7643 29.5466 40.1095 29.5466 40.7592C29.5466 41.3988 29.2014 41.7541 28.2675 41.7541H27.6787Z" fill="white"/>
<path d="M35.6157 38.3025C33.3113 38.3025 32.0829 39.9268 32.0829 42.0586C32.0829 44.1905 33.3113 45.8148 35.6157 45.8148C37.9202 45.8148 39.1485 44.1905 39.1485 42.0586C39.1485 39.9268 37.9202 38.3025 35.6157 38.3025ZM35.6157 44.4646C34.2757 44.4646 33.6361 43.3987 33.6361 42.0586C33.6361 40.7186 34.2757 39.6527 35.6157 39.6527C36.9761 39.6527 37.5953 40.7186 37.5953 42.0586C37.5953 43.3987 36.9761 44.4646 35.6157 44.4646Z" fill="white"/>
<path d="M44.5293 45.2793C44.6548 45.5268 44.9087 45.6828 45.1861 45.6828C45.7385 45.6828 46.0942 45.0971 45.8394 44.6069L44.6377 42.295C44.4879 42.0067 44.4875 41.6636 44.6365 41.3749L45.6412 39.4295C45.8756 38.9755 45.5461 38.4345 45.0352 38.4345C44.7813 38.4345 44.5484 38.5755 44.4307 38.8005L43.3038 40.9557C43.2593 41.0409 43.1711 41.0942 43.0751 41.0942C42.9779 41.0942 42.8889 41.0396 42.8449 40.953L41.7596 38.815C41.6411 38.5816 41.4015 38.4345 41.1397 38.4345C40.6225 38.4345 40.2864 38.9791 40.5182 39.4414L41.5089 41.417C41.6534 41.7051 41.6502 42.0451 41.5003 42.3304L40.2914 44.6315C40.0404 45.1093 40.3869 45.6828 40.9266 45.6828C41.1949 45.6828 41.4408 45.5331 41.564 45.2948L42.8346 42.8373C42.8787 42.7519 42.9669 42.6982 43.0631 42.6982C43.1601 42.6982 43.2488 42.7527 43.2927 42.8392L44.5293 45.2793Z" fill="white"/>
<path d="M50.5261 38.3025C48.2216 38.3025 46.9933 39.9268 46.9933 42.0586C46.9933 44.1905 48.2216 45.8148 50.5261 45.8148C52.8305 45.8148 54.0589 44.1905 54.0589 42.0586C54.0589 39.9268 52.8305 38.3025 50.5261 38.3025ZM50.5261 44.4646C49.1861 44.4646 48.5465 43.3987 48.5465 42.0586C48.5465 40.7186 49.1861 39.6527 50.5261 39.6527C51.8864 39.6527 52.5057 40.7186 52.5057 42.0586C52.5057 43.3987 51.8864 44.4646 50.5261 44.4646Z" fill="white"/>
<path d="M61.7371 44.3326C61.4511 44.3326 61.2193 44.1008 61.2193 43.8149V39.4345C61.2193 38.8822 60.7716 38.4345 60.2193 38.4345H57.1638C56.6115 38.4345 56.1638 38.8822 56.1638 39.4345V40.0283C56.1638 41.9495 55.8528 43.2237 55.4297 44.0877C55.3545 44.2413 55.1951 44.3326 55.024 44.3326C54.762 44.3326 54.5496 44.545 54.5496 44.807V46.7233C54.5496 47.1298 54.8792 47.4593 55.2856 47.4593C55.6921 47.4593 56.0216 47.1298 56.0216 46.7233V46.5711C56.0216 46.0805 56.4193 45.6828 56.9099 45.6828H59.8945C60.3851 45.6828 60.7828 46.0805 60.7828 46.5711V46.7233C60.7828 47.1298 61.1123 47.4593 61.5188 47.4593C61.9253 47.4593 62.2548 47.1298 62.2548 46.7233V44.8504C62.2548 44.5644 62.023 44.3326 61.7371 44.3326ZM59.7473 43.3326C59.7473 43.8849 59.2996 44.3326 58.7473 44.3326H58.4992C57.7446 44.3326 57.2111 43.4983 57.3586 42.7582C57.4873 42.1117 57.5647 41.3354 57.5647 40.4242C57.5647 40.071 57.8511 39.7846 58.2043 39.7846H58.7473C59.2996 39.7846 59.7473 40.2324 59.7473 40.7846V43.3326Z" fill="white"/>
<path d="M64.0448 38.4345C63.6552 38.4345 63.3393 38.7503 63.3393 39.14V44.6828C63.3393 45.2351 63.787 45.6828 64.3393 45.6828H64.6998C65.0738 45.6828 65.4166 45.4741 65.5882 45.1418L67.9328 40.6043C67.9609 40.5498 68.0172 40.5156 68.0785 40.5156C68.1691 40.5156 68.2426 40.589 68.2426 40.6796V44.9722C68.2426 45.3646 68.5607 45.6828 68.9532 45.6828C69.3457 45.6828 69.6638 45.3646 69.6638 44.9722V39.4345C69.6638 38.8822 69.2161 38.4345 68.6638 38.4345H68.2326C67.8584 38.4345 67.5155 38.6434 67.3439 38.9759L65.0602 43.4012C65.032 43.4558 64.9758 43.49 64.9144 43.49C64.8238 43.49 64.7504 43.4166 64.7504 43.326V39.14C64.7504 38.7503 64.4345 38.4345 64.0448 38.4345Z" fill="white"/>
<path d="M76.6795 39.0994C76.6795 38.7322 76.3818 38.4345 76.0146 38.4345H71.3245C70.9573 38.4345 70.6596 38.7322 70.6596 39.0994C70.6596 39.4666 70.9573 39.7643 71.3245 39.7643H71.9132C72.4655 39.7643 72.9132 40.2121 72.9132 40.7643V44.9265C72.9132 45.3442 73.2519 45.6828 73.6696 45.6828C74.0872 45.6828 74.4259 45.3442 74.4259 44.9265V40.7643C74.4259 40.2121 74.8736 39.7643 75.4259 39.7643H76.0146C76.3818 39.7643 76.6795 39.4666 76.6795 39.0994Z" fill="white"/>
<path d="M22.562 56.0579C22.1857 56.0579 21.8848 56.3427 21.6543 56.6401C21.3982 56.9705 20.9918 57.1542 20.466 57.1542C19.1666 57.1542 18.5474 56.0883 18.5474 54.7483C18.5474 53.4083 19.1666 52.3423 20.466 52.3423C20.9415 52.3423 21.3 52.4635 21.5414 52.7086C21.7951 52.9661 22.0854 53.2357 22.4469 53.2357C22.9535 53.2357 23.3429 52.763 23.0836 52.3279C22.595 51.5077 21.6709 50.9921 20.466 50.9921C18.2631 50.9921 16.9941 52.5251 16.9941 54.7483C16.9941 56.9715 18.253 58.5044 20.466 58.5044C21.7868 58.5044 22.7564 57.8944 23.2212 56.9432C23.4361 56.5033 23.0516 56.0579 22.562 56.0579Z" fill="white"/>
<path d="M27.1896 57.0223C26.7186 57.0223 26.3368 56.6405 26.3368 56.1695C26.3368 55.6986 26.7186 55.3168 27.1896 55.3168H28.6717C29.0361 55.3168 29.3316 55.0214 29.3316 54.6569C29.3316 54.2925 29.0361 53.9971 28.6717 53.9971H27.0982C26.6777 53.9971 26.3368 53.6562 26.3368 53.2357C26.3368 52.8152 26.6777 52.4743 27.0982 52.4743H29.5092C29.8821 52.4743 30.1843 52.172 30.1843 51.7992C30.1843 51.4264 29.8821 51.1241 29.5092 51.1241H25.8242C25.2719 51.1241 24.8242 51.5718 24.8242 52.1241V57.3724C24.8242 57.9247 25.2719 58.3724 25.8242 58.3724H29.6209C29.9937 58.3724 30.296 58.0702 30.296 57.6974C30.296 57.3245 29.9937 57.0223 29.6209 57.0223H27.1896Z" fill="white"/>
<path d="M32.291 51.1241C31.9013 51.1241 31.5854 51.44 31.5854 51.8297V57.3724C31.5854 57.9247 32.0331 58.3724 32.5854 58.3724H32.946C33.3199 58.3724 33.6627 58.1638 33.8344 57.8315L36.1789 53.294C36.2071 53.2395 36.2633 53.2052 36.3246 53.2052C36.4153 53.2052 36.4887 53.2787 36.4887 53.3693V57.6618C36.4887 58.0543 36.8069 58.3724 37.1993 58.3724C37.5918 58.3724 37.9099 58.0543 37.9099 57.6618V52.1241C37.9099 51.5718 37.4622 51.1241 36.9099 51.1241H36.4787C36.1045 51.1241 35.7616 51.333 35.59 51.6655L33.3063 56.0909C33.2781 56.1454 33.2219 56.1797 33.1605 56.1797C33.0699 56.1797 32.9965 56.1062 32.9965 56.0157V51.8297C32.9965 51.44 32.6806 51.1241 32.291 51.1241ZM36.0402 49.1953C35.7558 49.1953 35.5349 49.4369 35.3244 49.6282C35.1904 49.7501 34.9969 49.8247 34.7426 49.8247C34.488 49.8247 34.2946 49.7529 34.1609 49.6351C33.9457 49.4455 33.724 49.1953 33.4372 49.1953C33.1071 49.1953 32.8358 49.4861 32.968 49.7887C33.2365 50.4036 33.8518 50.7587 34.7426 50.7587C35.6299 50.7587 36.2439 50.4064 36.5141 49.7958C36.6494 49.4901 36.3745 49.1953 36.0402 49.1953Z" fill="white"/>
<path d="M40.0376 51.1241C39.6199 51.1241 39.2813 51.4627 39.2813 51.8804V53.4286C39.2813 54.5757 39.3828 55.7432 41.9411 55.7432C42.0585 55.7432 42.1812 55.74 42.3063 55.7339C42.9499 55.7022 43.5552 56.1873 43.5552 56.8316V57.6161C43.5552 58.0338 43.8938 58.3724 44.3115 58.3724C44.7292 58.3724 45.0678 58.0338 45.0678 57.6161V51.8804C45.0678 51.4627 44.7292 51.1241 44.3115 51.1241C43.8938 51.1241 43.5552 51.4627 43.5552 51.8804V53.4736C43.5552 53.9213 43.2573 54.3235 42.8118 54.368C42.6427 54.3849 42.473 54.393 42.3065 54.393C40.8041 54.393 40.7939 53.7839 40.7939 53.1951V51.8804C40.7939 51.4627 40.4553 51.1241 40.0376 51.1241Z" fill="white"/>
<path d="M51.3596 57.8557C51.4518 58.1624 51.7342 58.3724 52.0545 58.3724C52.5459 58.3724 52.8951 57.8943 52.7457 57.4262L50.9554 51.8199C50.8231 51.4054 50.4379 51.1241 50.0028 51.1241H49.1196C48.684 51.1241 48.2986 51.406 48.1666 51.8211L46.3766 57.4513C46.2317 57.9072 46.5719 58.3724 47.0503 58.3724C47.3624 58.3724 47.6375 58.1678 47.7274 57.869L47.9508 57.1254C48.0779 56.7026 48.4671 56.4132 48.9085 56.4132H50.1825C50.6239 56.4132 51.0131 56.7026 51.1401 57.1254L51.3596 57.8557ZM49.2473 52.7896C49.2857 52.6626 49.4027 52.5758 49.5353 52.5758C49.668 52.5758 49.7849 52.6626 49.8233 52.7896L50.235 54.1509C50.3769 54.6202 50.0257 55.0934 49.5353 55.0934C49.045 55.0934 48.6937 54.6202 48.8357 54.1509L49.2473 52.7896Z" fill="white"/>
<path d="M59.1637 56.0579C58.7874 56.0579 58.4865 56.3427 58.256 56.6401C57.9999 56.9705 57.5936 57.1542 57.0678 57.1542C55.7683 57.1542 55.1491 56.0883 55.1491 54.7483C55.1491 53.4083 55.7683 52.3423 57.0678 52.3423C57.5432 52.3423 57.9017 52.4635 58.1431 52.7086C58.3968 52.9661 58.6872 53.2357 59.0487 53.2357C59.5552 53.2357 59.9446 52.763 59.6854 52.3279C59.1968 51.5077 58.2726 50.9921 57.0678 50.9921C54.8648 50.9921 53.5959 52.5251 53.5959 54.7483C53.5959 56.9715 54.8547 58.5044 57.0678 58.5044C58.3885 58.5044 59.3581 57.8944 59.8229 56.9432C60.0378 56.5033 59.6533 56.0579 59.1637 56.0579Z" fill="white"/>
</svg>
